<svg id="Layer_1" data-name="Layer 1" xmlns="http://www.w3.org/2000/svg" viewBox="0 0 53.03 31.3"><defs><style>.cls-1{fill:#dcdddc;}.cls-2{font-size:15.08px;fill:#454242;font-family:PoynterOSDisp-Bold, PoynterOSDisp;font-weight:700;letter-spacing:0.01em;}</style></defs><title>MMC Big Box</title><line class="cls-1" x1="13.38" y1="14.47" x2="25.34" y2="2.52"/><line class="cls-1" x1="23.67" y1="2.52" x2="13.38" y2="12.81"/><polygon class="cls-1" points="14.08 2.52 13.38 3.22 13.38 3.43 14.29 2.52 14.08 2.52"/><polygon class="cls-1" points="15.96 2.52 13.38 5.09 13.38 5.3 16.17 2.52 15.96 2.52"/><polygon class="cls-1" points="17.84 2.52 13.38 6.97 13.38 7.18 18.04 2.52 17.84 2.52"/><polygon class="cls-1" points="19.71 2.52 13.38 8.85 13.38 9.05 19.92 2.52 19.71 2.52"/><polygon class="cls-1" points="21.59 2.52 13.38 10.72 13.38 10.93 21.8 2.52 21.59 2.52"/><polygon class="cls-1" points="23.46 2.52 13.38 12.6 13.38 12.8 23.67 2.52 23.46 2.52"/><polygon class="cls-1" points="25.34 2.52 13.38 14.47 13.38 14.68 25.55 2.52 25.34 2.52"/><polygon class="cls-1" points="27.21 2.52 13.38 16.35 13.38 16.56 27.42 2.52 27.21 2.52"/><polygon class="cls-1" points="29.09 2.52 13.38 18.22 13.38 18.43 29.3 2.52 29.09 2.52"/><polygon class="cls-1" points="30.96 2.52 13.38 20.1 13.38 20.31 31.17 2.52 30.96 2.52"/><polygon class="cls-1" points="32.84 2.52 13.38 21.97 13.38 22.18 33.05 2.52 32.84 2.52"/><polygon class="cls-1" points="34.71 2.52 13.38 23.85 13.38 24.06 34.92 2.52 34.71 2.52"/><polygon class="cls-1" points="36.59 2.52 13.38 25.72 13.38 25.93 36.8 2.52 36.59 2.52"/><polygon class="cls-1" points="38.46 2.52 13.38 27.6 13.38 27.81 38.67 2.52 38.46 2.52"/><polygon class="cls-1" points="39.65 3.21 14.07 28.78 14.28 28.78 39.65 3.42 39.65 3.21"/><polygon class="cls-1" points="39.65 5.08 15.95 28.78 16.16 28.78 39.65 5.29 39.65 5.08"/><polygon class="cls-1" points="39.65 6.96 17.82 28.78 18.03 28.78 39.65 7.17 39.65 6.96"/><polygon class="cls-1" points="39.65 8.83 19.7 28.78 19.91 28.78 39.65 9.04 39.65 8.83"/><polygon class="cls-1" points="39.65 10.71 21.57 28.78 21.78 28.78 39.65 10.92 39.65 10.71"/><polygon class="cls-1" points="39.65 12.58 23.45 28.78 23.66 28.78 39.65 12.79 39.65 12.58"/><polygon class="cls-1" points="39.65 14.46 25.32 28.78 25.53 28.78 39.65 14.67 39.65 14.46"/><polygon class="cls-1" points="39.65 16.33 27.2 28.78 27.41 28.78 39.65 16.54 39.65 16.33"/><polygon class="cls-1" points="39.65 18.21 29.07 28.78 29.28 28.78 39.65 18.42 39.65 18.21"/><polygon class="cls-1" points="39.65 20.09 30.95 28.78 31.16 28.78 39.65 20.29 39.65 20.09"/><polygon class="cls-1" points="39.65 21.96 32.82 28.78 33.03 28.78 39.65 22.17 39.65 21.96"/><polygon class="cls-1" points="39.65 23.84 34.7 28.78 34.91 28.78 39.65 24.05 39.65 23.84"/><polygon class="cls-1" points="39.65 25.71 36.58 28.78 36.78 28.78 39.65 25.92 39.65 25.71"/><polygon class="cls-1" points="39.65 27.59 38.45 28.78 38.66 28.78 39.65 27.8 39.65 27.59"/><text class="cls-2" transform="translate(0 20.34)">Big Box</text></svg>