<svg id="Layer_1" data-name="Layer 1" xmlns="http://www.w3.org/2000/svg" viewBox="0 0 65.33 31.3"><defs><style>.cls-1{fill:#dcdddc;}.cls-2{font-size:15.08px;fill:#454242;font-family:PoynterOSDisp-Bold, PoynterOSDisp;font-weight:700;letter-spacing:0.01em;}</style></defs><title>MMC Building Materials</title><line class="cls-1" x1="19.53" y1="14.47" x2="31.49" y2="2.52"/><line class="cls-1" x1="29.82" y1="2.52" x2="19.53" y2="12.81"/><polygon class="cls-1" points="20.24 2.52 19.54 3.22 19.54 3.43 20.45 2.52 20.24 2.52"/><polygon class="cls-1" points="22.11 2.52 19.54 5.09 19.54 5.3 22.32 2.52 22.11 2.52"/><polygon class="cls-1" points="23.99 2.52 19.54 6.97 19.54 7.18 24.2 2.52 23.99 2.52"/><polygon class="cls-1" points="25.86 2.52 19.54 8.85 19.54 9.05 26.07 2.52 25.86 2.52"/><polygon class="cls-1" points="27.74 2.52 19.54 10.72 19.54 10.93 27.95 2.52 27.74 2.52"/><polygon class="cls-1" points="29.61 2.52 19.54 12.6 19.54 12.8 29.82 2.52 29.61 2.52"/><polygon class="cls-1" points="31.49 2.52 19.54 14.47 19.54 14.68 31.7 2.52 31.49 2.52"/><polygon class="cls-1" points="33.36 2.52 19.54 16.35 19.54 16.55 33.57 2.52 33.36 2.52"/><polygon class="cls-1" points="35.24 2.52 19.54 18.22 19.54 18.43 35.45 2.52 35.24 2.52"/><polygon class="cls-1" points="37.11 2.52 19.54 20.1 19.54 20.31 37.32 2.52 37.11 2.52"/><polygon class="cls-1" points="38.99 2.52 19.54 21.97 19.54 22.18 39.2 2.52 38.99 2.52"/><polygon class="cls-1" points="40.86 2.52 19.54 23.85 19.54 24.06 41.07 2.52 40.86 2.52"/><polygon class="cls-1" points="42.74 2.52 19.54 25.72 19.54 25.93 42.95 2.52 42.74 2.52"/><polygon class="cls-1" points="44.61 2.52 19.54 27.6 19.54 27.81 44.82 2.52 44.61 2.52"/><polygon class="cls-1" points="45.8 3.21 20.23 28.78 20.43 28.78 45.8 3.42 45.8 3.21"/><polygon class="cls-1" points="45.8 5.08 22.1 28.78 22.31 28.78 45.8 5.29 45.8 5.08"/><polygon class="cls-1" points="45.8 6.96 23.98 28.78 24.18 28.78 45.8 7.17 45.8 6.96"/><polygon class="cls-1" points="45.8 8.83 25.85 28.78 26.06 28.78 45.8 9.04 45.8 8.83"/><polygon class="cls-1" points="45.8 10.71 27.73 28.78 27.93 28.78 45.8 10.92 45.8 10.71"/><polygon class="cls-1" points="45.8 12.58 29.6 28.78 29.81 28.78 45.8 12.79 45.8 12.58"/><polygon class="cls-1" points="45.8 14.46 31.48 28.78 31.69 28.78 45.8 14.67 45.8 14.46"/><polygon class="cls-1" points="45.8 16.33 33.35 28.78 33.56 28.78 45.8 16.54 45.8 16.33"/><polygon class="cls-1" points="45.8 18.21 35.23 28.78 35.44 28.78 45.8 18.42 45.8 18.21"/><polygon class="cls-1" points="45.8 20.09 37.1 28.78 37.31 28.78 45.8 20.29 45.8 20.09"/><polygon class="cls-1" points="45.8 21.96 38.98 28.78 39.19 28.78 45.8 22.17 45.8 21.96"/><polygon class="cls-1" points="45.8 23.84 40.85 28.78 41.06 28.78 45.8 24.05 45.8 23.84"/><polygon class="cls-1" points="45.8 25.71 42.73 28.78 42.94 28.78 45.8 25.92 45.8 25.71"/><polygon class="cls-1" points="45.8 27.59 44.6 28.78 44.81 28.78 45.8 27.8 45.8 27.59"/><text class="cls-2" transform="translate(3.47 12.71)">Building<tspan x="-3.47" y="15.27">Materials</tspan></text></svg>