<svg id="Layer_1" data-name="Layer 1" xmlns="http://www.w3.org/2000/svg" viewBox="0 0 46.76 31.3"><defs><style>.cls-1{fill:#dcdddc;}.cls-2{font-size:15.08px;fill:#454242;font-family:PoynterOSDisp-Bold, PoynterOSDisp;font-weight:700;letter-spacing:0.01em;}</style></defs><title>MMC Health</title><path class="cls-1" d="M38.86,15.65H38.8a15.43,15.43,0,1,1-4.52-10.9,15.36,15.36,0,0,1,4.52,10.9h.12A15.55,15.55,0,1,0,23.38,31.19,15.54,15.54,0,0,0,38.92,15.65Z"/><path class="cls-1" d="M37.62,15.65h-.06a14.19,14.19,0,1,1-4.16-10,14.13,14.13,0,0,1,4.16,10h.12A14.31,14.31,0,1,0,23.38,30a14.31,14.31,0,0,0,14.3-14.31Z"/><path class="cls-1" d="M36.38,15.65h-.06A12.94,12.94,0,1,1,32.53,6.5a12.91,12.91,0,0,1,3.79,9.15h.13A13.07,13.07,0,1,0,23.38,28.72,13.07,13.07,0,0,0,36.45,15.65Z"/><path class="cls-1" d="M35.14,15.65h-.06a11.69,11.69,0,1,1-3.43-8.28,11.64,11.64,0,0,1,3.43,8.28h.13A11.83,11.83,0,1,0,23.38,27.48,11.83,11.83,0,0,0,35.21,15.65Z"/><path class="cls-1" d="M33.91,15.65h-.07a10.45,10.45,0,1,1-3.06-7.4,10.44,10.44,0,0,1,3.06,7.4H34A10.59,10.59,0,1,0,23.38,26.24,10.59,10.59,0,0,0,34,15.65Z"/><path class="cls-1" d="M32.67,15.65h-.06A9.25,9.25,0,1,1,29.9,9.13a9.23,9.23,0,0,1,2.71,6.52h.12A9.35,9.35,0,1,0,23.38,25a9.35,9.35,0,0,0,9.35-9.35Z"/><path class="cls-1" d="M31.43,15.65h-.06A8,8,0,1,1,29,10a8,8,0,0,1,2.34,5.65h.12a8.12,8.12,0,1,0-8.11,8.12,8.12,8.12,0,0,0,8.11-8.12Z"/><path class="cls-1" d="M30.19,15.65h-.06a6.76,6.76,0,1,1-2-4.77,6.74,6.74,0,0,1,2,4.77h.13a6.88,6.88,0,1,0-6.88,6.88,6.88,6.88,0,0,0,6.88-6.88Z"/><path class="cls-1" d="M29,15.65h-.06a5.5,5.5,0,1,1-1.61-3.9,5.54,5.54,0,0,1,1.61,3.9H29a5.64,5.64,0,1,0-5.64,5.64A5.65,5.65,0,0,0,29,15.65Z"/><path class="cls-1" d="M27.72,15.65h-.07a4.27,4.27,0,1,1-1.25-3,4.26,4.26,0,0,1,1.25,3h.13a4.4,4.4,0,1,0-4.4,4.4,4.4,4.4,0,0,0,4.4-4.4Z"/><path class="cls-1" d="M26.48,15.65h-.07a3.06,3.06,0,0,1-.88,2.15,3,3,0,1,1,0-4.3,3.06,3.06,0,0,1,.88,2.15h.13a3.16,3.16,0,1,0-3.16,3.16,3.15,3.15,0,0,0,3.16-3.16Z"/><path class="cls-1" d="M25.24,15.65h-.06a1.81,1.81,0,1,1-.53-1.27,1.76,1.76,0,0,1,.53,1.27h.12a1.93,1.93,0,1,0-1.92,1.92,1.92,1.92,0,0,0,1.92-1.92Z"/><path class="cls-1" d="M24,15.65h-.06a.56.56,0,1,1-.56-.56.56.56,0,0,1,.56.56h.13a.69.69,0,1,0-.69.69.69.69,0,0,0,.69-.69Z"/><text class="cls-2" transform="translate(0 20.34)">Health</text></svg>