<svg id="Layer_1" data-name="Layer 1" xmlns="http://www.w3.org/2000/svg" viewBox="0 0 44.39 31.3"><defs><style>.cls-1{fill:#dcdddc;}.cls-2{font-size:15.08px;fill:#454242;font-family:PoynterOSDisp-Bold, PoynterOSDisp;font-weight:700;letter-spacing:0.01em;}.cls-3{letter-spacing:-0.19em;}.cls-4{letter-spacing:-0.03em;}</style></defs><title>MMC HVAC</title><line class="cls-1" x1="9.06" y1="14.47" x2="21.02" y2="2.52"/><line class="cls-1" x1="19.35" y1="2.52" x2="9.06" y2="12.81"/><polygon class="cls-1" points="9.77 2.52 9.06 3.22 9.06 3.43 9.97 2.52 9.77 2.52"/><polygon class="cls-1" points="11.64 2.52 9.06 5.09 9.06 5.3 11.85 2.52 11.64 2.52"/><polygon class="cls-1" points="13.52 2.52 9.06 6.97 9.06 7.18 13.72 2.52 13.52 2.52"/><polygon class="cls-1" points="15.39 2.52 9.06 8.85 9.06 9.05 15.6 2.52 15.39 2.52"/><polygon class="cls-1" points="17.27 2.52 9.06 10.72 9.06 10.93 17.48 2.52 17.27 2.52"/><polygon class="cls-1" points="19.14 2.52 9.06 12.6 9.06 12.8 19.35 2.52 19.14 2.52"/><polygon class="cls-1" points="21.02 2.52 9.06 14.47 9.06 14.68 21.23 2.52 21.02 2.52"/><polygon class="cls-1" points="22.89 2.52 9.06 16.35 9.06 16.56 23.1 2.52 22.89 2.52"/><polygon class="cls-1" points="24.77 2.52 9.06 18.22 9.06 18.43 24.98 2.52 24.77 2.52"/><polygon class="cls-1" points="26.64 2.52 9.06 20.1 9.06 20.31 26.85 2.52 26.64 2.52"/><polygon class="cls-1" points="28.52 2.52 9.06 21.97 9.06 22.18 28.73 2.52 28.52 2.52"/><polygon class="cls-1" points="30.39 2.52 9.06 23.85 9.06 24.06 30.6 2.52 30.39 2.52"/><polygon class="cls-1" points="32.27 2.52 9.06 25.72 9.06 25.93 32.48 2.52 32.27 2.52"/><polygon class="cls-1" points="34.14 2.52 9.06 27.6 9.06 27.81 34.35 2.52 34.14 2.52"/><polygon class="cls-1" points="35.33 3.21 9.75 28.78 9.96 28.78 35.33 3.42 35.33 3.21"/><polygon class="cls-1" points="35.33 5.08 11.63 28.78 11.84 28.78 35.33 5.29 35.33 5.08"/><polygon class="cls-1" points="35.33 6.96 13.5 28.78 13.71 28.78 35.33 7.17 35.33 6.96"/><polygon class="cls-1" points="35.33 8.83 15.38 28.78 15.59 28.78 35.33 9.04 35.33 8.83"/><polygon class="cls-1" points="35.33 10.71 17.25 28.78 17.46 28.78 35.33 10.92 35.33 10.71"/><polygon class="cls-1" points="35.33 12.58 19.13 28.78 19.34 28.78 35.33 12.79 35.33 12.58"/><polygon class="cls-1" points="35.33 14.46 21 28.78 21.21 28.78 35.33 14.67 35.33 14.46"/><polygon class="cls-1" points="35.33 16.33 22.88 28.78 23.09 28.78 35.33 16.54 35.33 16.33"/><polygon class="cls-1" points="35.33 18.21 24.75 28.78 24.96 28.78 35.33 18.42 35.33 18.21"/><polygon class="cls-1" points="35.33 20.09 26.63 28.78 26.84 28.78 35.33 20.29 35.33 20.09"/><polygon class="cls-1" points="35.33 21.96 28.5 28.78 28.71 28.78 35.33 22.17 35.33 21.96"/><polygon class="cls-1" points="35.33 23.84 30.38 28.78 30.59 28.78 35.33 24.05 35.33 23.84"/><polygon class="cls-1" points="35.33 25.71 32.26 28.78 32.47 28.78 35.33 25.92 35.33 25.71"/><polygon class="cls-1" points="35.33 27.59 34.13 28.78 34.34 28.78 35.33 27.8 35.33 27.59"/><text class="cls-2" transform="translate(1.21 20.34)">H<tspan class="cls-3" x="12.35" y="0">V</tspan><tspan class="cls-4" x="20.48" y="0">A</tspan><tspan x="31.21" y="0">C</tspan></text></svg>