<svg id="Layer_1" data-name="Layer 1" xmlns="http://www.w3.org/2000/svg" viewBox="0 0 55.13 31.3"><defs><style>.cls-1{fill:#dcdddc;}.cls-2{font-size:15.08px;fill:#454242;font-family:PoynterOSDisp-Bold, PoynterOSDisp;font-weight:700;letter-spacing:0.01em;}</style></defs><title>MMC Medical Devices</title><path class="cls-1" d="M42.94,15.65h-.06a15.42,15.42,0,1,1-4.51-10.9,15.36,15.36,0,0,1,4.51,10.9H43A15.55,15.55,0,1,0,27.46,31.19,15.55,15.55,0,0,0,43,15.65Z"/><path class="cls-1" d="M41.71,15.65h-.07a14.17,14.17,0,1,1-4.15-10,14.12,14.12,0,0,1,4.15,10h.13A14.31,14.31,0,1,0,27.46,30,14.31,14.31,0,0,0,41.77,15.65Z"/><path class="cls-1" d="M40.47,15.65h-.06a13,13,0,1,1-3.8-9.15,12.88,12.88,0,0,1,3.8,9.15h.12A13.07,13.07,0,1,0,27.46,28.72,13.07,13.07,0,0,0,40.53,15.65Z"/><path class="cls-1" d="M39.23,15.65h-.06a11.69,11.69,0,1,1-3.43-8.28,11.64,11.64,0,0,1,3.43,8.28h.12A11.83,11.83,0,1,0,27.46,27.48,11.83,11.83,0,0,0,39.29,15.65Z"/><path class="cls-1" d="M38,15.65h-.06a10.46,10.46,0,1,1-3.07-7.4,10.4,10.4,0,0,1,3.07,7.4h.13a10.6,10.6,0,1,0-10.6,10.59,10.6,10.6,0,0,0,10.6-10.59Z"/><path class="cls-1" d="M36.75,15.65h-.06A9.24,9.24,0,1,1,34,9.13a9.18,9.18,0,0,1,2.7,6.52h.13A9.36,9.36,0,1,0,27.46,25a9.35,9.35,0,0,0,9.36-9.35Z"/><path class="cls-1" d="M35.52,15.65h-.07A8,8,0,1,1,33.11,10a7.95,7.95,0,0,1,2.34,5.65h.13a8.12,8.12,0,1,0-8.12,8.12,8.12,8.12,0,0,0,8.12-8.12Z"/><path class="cls-1" d="M34.28,15.65h-.07a6.74,6.74,0,1,1-2-4.77,6.73,6.73,0,0,1,2,4.77h.13a6.88,6.88,0,1,0-6.88,6.88,6.88,6.88,0,0,0,6.88-6.88Z"/><path class="cls-1" d="M33,15.65H33a5.51,5.51,0,1,1-1.62-3.9A5.5,5.5,0,0,1,33,15.65h.12a5.64,5.64,0,1,0-5.64,5.64,5.64,5.64,0,0,0,5.64-5.64Z"/><path class="cls-1" d="M31.8,15.65h-.06a4.27,4.27,0,1,1-1.25-3,4.26,4.26,0,0,1,1.25,3h.13a4.41,4.41,0,1,0-4.41,4.4,4.4,4.4,0,0,0,4.41-4.4Z"/><path class="cls-1" d="M30.56,15.65H30.5a3,3,0,1,1-.89-2.15,3,3,0,0,1,.89,2.15h.13a3.17,3.17,0,1,0-3.17,3.16,3.16,3.16,0,0,0,3.17-3.16Z"/><path class="cls-1" d="M29.33,15.65h-.07a1.79,1.79,0,1,1-.52-1.27,1.79,1.79,0,0,1,.52,1.27h.13a1.93,1.93,0,1,0-1.93,1.92,1.92,1.92,0,0,0,1.93-1.92Z"/><path class="cls-1" d="M28.09,15.65H28a.56.56,0,0,1-.56.56.56.56,0,0,1,0-1.12.56.56,0,0,1,.56.56h.13a.69.69,0,1,0-.69.69.69.69,0,0,0,.69-.69Z"/><text class="cls-2" transform="translate(0 12.71)">Medical<tspan x="4.41" y="15.27">Device</tspan></text></svg>