<svg xmlns="http://www.w3.org/2000/svg" viewBox="0 0 68 43"><defs><style>.cls-1{fill:#dcdddc;}.cls-2{font-size:14px;fill:#484545;font-family:PoynterOSDisp-Bold, PoynterOSDisp;font-weight:700;letter-spacing:0.01em;}</style></defs><title>MMC Medical Devices</title><g id="Pattern"><path class="cls-1" d="M51.7,21.5h-.07A17.72,17.72,0,1,1,46.44,9,17.67,17.67,0,0,1,51.63,21.5h.15A17.88,17.88,0,1,0,33.9,39.38,17.89,17.89,0,0,0,51.78,21.5Z"/><path class="cls-1" d="M50.28,21.5h-.07A16.32,16.32,0,1,1,45.43,10,16.27,16.27,0,0,1,50.21,21.5h.14A16.45,16.45,0,1,0,33.9,38,16.44,16.44,0,0,0,50.35,21.5Z"/><path class="cls-1" d="M48.86,21.5h-.08A14.89,14.89,0,1,1,44.42,11,14.79,14.79,0,0,1,48.78,21.5h.15a15,15,0,1,0-15,15,15,15,0,0,0,15-15Z"/><path class="cls-1" d="M47.43,21.5h-.07A13.45,13.45,0,1,1,43.42,12a13.45,13.45,0,0,1,3.94,9.52h.15A13.61,13.61,0,1,0,33.9,35.1,13.6,13.6,0,0,0,47.51,21.5Z"/><path class="cls-1" d="M46,21.5h-.07A12,12,0,1,1,42.41,13a12,12,0,0,1,3.53,8.51h.14A12.18,12.18,0,1,0,33.9,33.68,12.18,12.18,0,0,0,46.08,21.5Z"/><path class="cls-1" d="M44.59,21.5h-.08A10.62,10.62,0,1,1,41.4,14a10.57,10.57,0,0,1,3.11,7.5h.15A10.76,10.76,0,1,0,33.9,32.26,10.76,10.76,0,0,0,44.66,21.5Z"/><path class="cls-1" d="M43.16,21.5h-.07A9.18,9.18,0,1,1,40.4,15a9.18,9.18,0,0,1,2.69,6.5h.14a9.33,9.33,0,1,0-9.33,9.33,9.33,9.33,0,0,0,9.33-9.33Z"/><path class="cls-1" d="M41.74,21.5h-.08A7.75,7.75,0,1,1,39.39,16a7.73,7.73,0,0,1,2.27,5.49h.15a7.91,7.91,0,1,0-7.91,7.91,7.91,7.91,0,0,0,7.91-7.91Z"/><path class="cls-1" d="M40.31,21.5h-.07A6.35,6.35,0,1,1,38.38,17a6.31,6.31,0,0,1,1.86,4.48h.15A6.49,6.49,0,1,0,33.9,28a6.5,6.5,0,0,0,6.49-6.49Z"/><path class="cls-1" d="M38.89,21.5h-.07A4.92,4.92,0,1,1,37.38,18a4.9,4.9,0,0,1,1.44,3.48H39a5.06,5.06,0,1,0-5.06,5.06A5.05,5.05,0,0,0,39,21.5Z"/><path class="cls-1" d="M37.47,21.5h-.08a3.48,3.48,0,1,1-1-2.47,3.49,3.49,0,0,1,1,2.47h.15a3.64,3.64,0,1,0-3.64,3.64,3.64,3.64,0,0,0,3.64-3.64Z"/><path class="cls-1" d="M36,21.5H36A2.06,2.06,0,0,1,32.44,23a2.05,2.05,0,0,1,0-2.92A2.07,2.07,0,0,1,36,21.5h.15a2.22,2.22,0,1,0-2.22,2.21,2.22,2.22,0,0,0,2.22-2.21Z"/><path class="cls-1" d="M34.62,21.5h-.07a.65.65,0,0,1-.65.64.64.64,0,0,1,0-1.28.65.65,0,0,1,.65.64h.14a.79.79,0,1,0-.79.79.79.79,0,0,0,.79-.79Z"/></g><g id="Text"><text class="cls-2" transform="translate(8.47 18.56)">Medical<tspan x="4.09" y="15.27">Device</tspan></text></g></svg>