<svg xmlns="http://www.w3.org/2000/svg" viewBox="0 0 68 43"><defs><style>.cls-1{fill:#dcdddc;}.cls-2{font-size:14px;fill:#484545;font-family:PoynterOSDisp-Bold, PoynterOSDisp;font-weight:700;letter-spacing:0.01em;}</style></defs><title>MMC Pharma</title><g id="Pattern"><path class="cls-1" d="M51.8,21.5h-.07A17.72,17.72,0,1,1,46.54,9,17.67,17.67,0,0,1,51.73,21.5h.15A17.88,17.88,0,1,0,34,39.38,17.89,17.89,0,0,0,51.88,21.5Z"/><path class="cls-1" d="M50.38,21.5h-.07A16.32,16.32,0,1,1,45.53,10,16.27,16.27,0,0,1,50.31,21.5h.14A16.45,16.45,0,1,0,34,38,16.44,16.44,0,0,0,50.45,21.5Z"/><path class="cls-1" d="M49,21.5h-.07A14.89,14.89,0,1,1,44.52,11,14.79,14.79,0,0,1,48.88,21.5H49a15,15,0,1,0-15,15,15,15,0,0,0,15-15Z"/><path class="cls-1" d="M47.53,21.5h-.07A13.45,13.45,0,1,1,43.52,12a13.45,13.45,0,0,1,3.94,9.52h.14A13.6,13.6,0,1,0,34,35.1,13.6,13.6,0,0,0,47.6,21.5Z"/><path class="cls-1" d="M46.11,21.5H46A12,12,0,1,1,42.51,13,12,12,0,0,1,46,21.5h.15A12.18,12.18,0,1,0,34,33.68,12.18,12.18,0,0,0,46.18,21.5Z"/><path class="cls-1" d="M44.68,21.5h-.07A10.62,10.62,0,1,1,41.5,14a10.57,10.57,0,0,1,3.11,7.5h.15A10.76,10.76,0,1,0,34,32.26,10.76,10.76,0,0,0,44.76,21.5Z"/><path class="cls-1" d="M43.26,21.5h-.07A9.18,9.18,0,1,1,40.5,15a9.18,9.18,0,0,1,2.69,6.5h.14A9.33,9.33,0,1,0,34,30.83a9.33,9.33,0,0,0,9.33-9.33Z"/><path class="cls-1" d="M41.84,21.5h-.08A7.75,7.75,0,1,1,39.49,16a7.77,7.77,0,0,1,2.27,5.49h.15A7.91,7.91,0,1,0,34,29.41a7.91,7.91,0,0,0,7.91-7.91Z"/><path class="cls-1" d="M40.41,21.5h-.07A6.35,6.35,0,1,1,38.48,17a6.31,6.31,0,0,1,1.86,4.48h.14A6.49,6.49,0,1,0,34,28a6.49,6.49,0,0,0,6.48-6.49Z"/><path class="cls-1" d="M39,21.5h-.08A4.88,4.88,0,1,1,37.48,18a4.94,4.94,0,0,1,1.43,3.48h.15A5.06,5.06,0,1,0,34,26.56a5.05,5.05,0,0,0,5.06-5.06Z"/><path class="cls-1" d="M37.56,21.5h-.07a3.48,3.48,0,1,1-1-2.47,3.49,3.49,0,0,1,1,2.47h.15A3.64,3.64,0,1,0,34,25.14a3.64,3.64,0,0,0,3.64-3.64Z"/><path class="cls-1" d="M36.14,21.5h-.07A2.08,2.08,0,1,1,35.46,20a2,2,0,0,1,.61,1.46h.14A2.21,2.21,0,1,0,34,23.71a2.21,2.21,0,0,0,2.21-2.21Z"/><path class="cls-1" d="M34.72,21.5h-.08a.64.64,0,1,1-.64-.64.63.63,0,0,1,.64.64h.15a.79.79,0,1,0-.79.79.79.79,0,0,0,.79-.79Z"/></g><g id="Text"><text class="cls-2" transform="translate(9.59 26.19)">Pharma</text></g></svg>