<svg id="Layer_1" data-name="Layer 1" xmlns="http://www.w3.org/2000/svg" viewBox="0 0 61.6 31.3"><defs><style>.cls-1{fill:#dcdddc;}.cls-2{font-size:15.08px;fill:#454242;font-family:PoynterOSDisp-Bold, PoynterOSDisp;font-weight:700;letter-spacing:0.01em;}</style></defs><title>MMC Plumbing</title><line class="cls-1" x1="17.67" y1="14.47" x2="29.62" y2="2.52"/><line class="cls-1" x1="27.95" y1="2.52" x2="17.67" y2="12.81"/><polygon class="cls-1" points="18.37 2.52 17.67 3.22 17.67 3.43 18.58 2.52 18.37 2.52"/><polygon class="cls-1" points="20.25 2.52 17.67 5.09 17.67 5.3 20.45 2.52 20.25 2.52"/><polygon class="cls-1" points="22.12 2.52 17.67 6.97 17.67 7.18 22.33 2.52 22.12 2.52"/><polygon class="cls-1" points="24 2.52 17.67 8.85 17.67 9.05 24.2 2.52 24 2.52"/><polygon class="cls-1" points="25.87 2.52 17.67 10.72 17.67 10.93 26.08 2.52 25.87 2.52"/><polygon class="cls-1" points="27.75 2.52 17.67 12.6 17.67 12.8 27.95 2.52 27.75 2.52"/><polygon class="cls-1" points="29.62 2.52 17.67 14.47 17.67 14.68 29.83 2.52 29.62 2.52"/><polygon class="cls-1" points="31.5 2.52 17.67 16.35 17.67 16.56 31.7 2.52 31.5 2.52"/><polygon class="cls-1" points="33.37 2.52 17.67 18.22 17.67 18.43 33.58 2.52 33.37 2.52"/><polygon class="cls-1" points="35.25 2.52 17.67 20.1 17.67 20.31 35.46 2.52 35.25 2.52"/><polygon class="cls-1" points="37.12 2.52 17.67 21.97 17.67 22.18 37.33 2.52 37.12 2.52"/><polygon class="cls-1" points="39 2.52 17.67 23.85 17.67 24.06 39.21 2.52 39 2.52"/><polygon class="cls-1" points="40.87 2.52 17.67 25.72 17.67 25.93 41.08 2.52 40.87 2.52"/><polygon class="cls-1" points="42.75 2.52 17.67 27.6 17.67 27.81 42.96 2.52 42.75 2.52"/><polygon class="cls-1" points="43.93 3.21 18.36 28.78 18.57 28.78 43.93 3.42 43.93 3.21"/><polygon class="cls-1" points="43.93 5.08 20.23 28.78 20.44 28.78 43.93 5.29 43.93 5.08"/><polygon class="cls-1" points="43.93 6.96 22.11 28.78 22.32 28.78 43.93 7.17 43.93 6.96"/><polygon class="cls-1" points="43.93 8.83 23.98 28.78 24.19 28.78 43.93 9.04 43.93 8.83"/><polygon class="cls-1" points="43.93 10.71 25.86 28.78 26.07 28.78 43.93 10.92 43.93 10.71"/><polygon class="cls-1" points="43.93 12.58 27.73 28.78 27.94 28.78 43.93 12.79 43.93 12.58"/><polygon class="cls-1" points="43.93 14.46 29.61 28.78 29.82 28.78 43.93 14.67 43.93 14.46"/><polygon class="cls-1" points="43.93 16.33 31.48 28.78 31.69 28.78 43.93 16.54 43.93 16.33"/><polygon class="cls-1" points="43.93 18.21 33.36 28.78 33.57 28.78 43.93 18.42 43.93 18.21"/><polygon class="cls-1" points="43.93 20.09 35.23 28.78 35.44 28.78 43.93 20.29 43.93 20.09"/><polygon class="cls-1" points="43.93 21.96 37.11 28.78 37.32 28.78 43.93 22.17 43.93 21.96"/><polygon class="cls-1" points="43.93 23.84 38.98 28.78 39.19 28.78 43.93 24.05 43.93 23.84"/><polygon class="cls-1" points="43.93 25.71 40.86 28.78 41.07 28.78 43.93 25.92 43.93 25.71"/><polygon class="cls-1" points="43.93 27.59 42.73 28.78 42.95 28.78 43.93 27.8 43.93 27.59"/><text class="cls-2" transform="translate(0 20.34) scale(0.92 1)">Plumbing</text></svg>