<svg xmlns="http://www.w3.org/2000/svg" viewBox="0 0 68 43"><defs><style>.cls-1{fill:#dcdddc;}.cls-2{font-size:14px;fill:#484545;font-family:PoynterOSDisp-Bold, PoynterOSDisp;font-weight:700;letter-spacing:0.01em;}</style></defs><title>MMC Roofing</title><g id="Pattern"><line class="cls-1" x1="18.9" y1="20.14" x2="32.64" y2="6.4"/><line class="cls-1" x1="30.73" y1="6.4" x2="18.9" y2="18.23"/><polygon class="cls-1" points="19.71 6.4 18.9 7.21 18.9 7.45 19.95 6.4 19.71 6.4"/><polygon class="cls-1" points="21.86 6.4 18.9 9.36 18.9 9.6 22.1 6.4 21.86 6.4"/><polygon class="cls-1" points="24.02 6.4 18.9 11.52 18.9 11.76 24.26 6.4 24.02 6.4"/><polygon class="cls-1" points="26.18 6.4 18.9 13.68 18.9 13.92 26.42 6.4 26.18 6.4"/><polygon class="cls-1" points="28.33 6.4 18.9 15.83 18.9 16.07 28.57 6.4 28.33 6.4"/><polygon class="cls-1" points="30.49 6.4 18.9 17.99 18.9 18.23 30.73 6.4 30.49 6.4"/><polygon class="cls-1" points="32.64 6.4 18.9 20.14 18.9 20.39 32.88 6.4 32.64 6.4"/><polygon class="cls-1" points="34.8 6.4 18.9 22.3 18.9 22.54 35.04 6.4 34.8 6.4"/><polygon class="cls-1" points="36.96 6.4 18.9 24.46 18.9 24.7 37.2 6.4 36.96 6.4"/><polygon class="cls-1" points="39.11 6.4 18.9 26.61 18.9 26.85 39.35 6.4 39.11 6.4"/><polygon class="cls-1" points="41.27 6.4 18.9 28.77 18.9 29.01 41.51 6.4 41.27 6.4"/><polygon class="cls-1" points="43.43 6.4 18.9 30.93 18.9 31.17 43.67 6.4 43.43 6.4"/><polygon class="cls-1" points="45.58 6.4 18.9 33.08 18.9 33.32 45.82 6.4 45.58 6.4"/><polygon class="cls-1" points="47.74 6.4 18.9 35.24 18.9 35.48 47.98 6.4 47.74 6.4"/><polygon class="cls-1" points="49.1 7.19 19.69 36.6 19.93 36.6 49.1 7.43 49.1 7.19"/><polygon class="cls-1" points="49.1 9.35 21.85 36.6 22.09 36.6 49.1 9.59 49.1 9.35"/><polygon class="cls-1" points="49.1 11.51 24 36.6 24.25 36.6 49.1 11.75 49.1 11.51"/><polygon class="cls-1" points="49.1 13.66 26.16 36.6 26.4 36.6 49.1 13.9 49.1 13.66"/><polygon class="cls-1" points="49.1 15.82 28.32 36.6 28.56 36.6 49.1 16.06 49.1 15.82"/><polygon class="cls-1" points="49.1 17.97 30.47 36.6 30.71 36.6 49.1 18.21 49.1 17.97"/><polygon class="cls-1" points="49.1 20.13 32.63 36.6 32.87 36.6 49.1 20.37 49.1 20.13"/><polygon class="cls-1" points="49.1 22.29 34.79 36.6 35.03 36.6 49.1 22.53 49.1 22.29"/><polygon class="cls-1" points="49.1 24.44 36.94 36.6 37.19 36.6 49.1 24.68 49.1 24.44"/><polygon class="cls-1" points="49.1 26.6 39.1 36.6 39.34 36.6 49.1 26.84 49.1 26.6"/><polygon class="cls-1" points="49.1 28.76 41.26 36.6 41.5 36.6 49.1 29 49.1 28.76"/><polygon class="cls-1" points="49.1 30.91 43.41 36.6 43.65 36.6 49.1 31.15 49.1 30.91"/><polygon class="cls-1" points="49.1 33.07 45.57 36.6 45.81 36.6 49.1 33.31 49.1 33.07"/><polygon class="cls-1" points="49.1 35.23 47.73 36.6 47.97 36.6 49.1 35.47 49.1 35.23"/></g><g id="Text"><text class="cls-2" transform="translate(8.98 26.19)">Roofing</text></g></svg>