<svg id="Layer_1" data-name="Layer 1" xmlns="http://www.w3.org/2000/svg" viewBox="0 0 53.89 31.3"><defs><style>.cls-1{fill:#dcdddc;}.cls-2{font-size:15.08px;fill:#454242;font-family:PoynterOSDisp-Bold, PoynterOSDisp;font-weight:700;letter-spacing:0.01em;}</style></defs><title>MMC Roofing</title><line class="cls-1" x1="13.81" y1="14.47" x2="25.77" y2="2.52"/><line class="cls-1" x1="24.1" y1="2.52" x2="13.81" y2="12.81"/><polygon class="cls-1" points="14.51 2.52 13.81 3.22 13.81 3.43 14.72 2.52 14.51 2.52"/><polygon class="cls-1" points="16.39 2.52 13.81 5.09 13.81 5.3 16.6 2.52 16.39 2.52"/><polygon class="cls-1" points="18.27 2.52 13.81 6.97 13.81 7.18 18.47 2.52 18.27 2.52"/><polygon class="cls-1" points="20.14 2.52 13.81 8.85 13.81 9.05 20.35 2.52 20.14 2.52"/><polygon class="cls-1" points="22.02 2.52 13.81 10.72 13.81 10.93 22.23 2.52 22.02 2.52"/><polygon class="cls-1" points="23.89 2.52 13.81 12.6 13.81 12.8 24.1 2.52 23.89 2.52"/><polygon class="cls-1" points="25.77 2.52 13.81 14.47 13.81 14.68 25.98 2.52 25.77 2.52"/><polygon class="cls-1" points="27.64 2.52 13.81 16.35 13.81 16.56 27.85 2.52 27.64 2.52"/><polygon class="cls-1" points="29.52 2.52 13.81 18.22 13.81 18.43 29.73 2.52 29.52 2.52"/><polygon class="cls-1" points="31.39 2.52 13.81 20.1 13.81 20.31 31.6 2.52 31.39 2.52"/><polygon class="cls-1" points="33.27 2.52 13.81 21.97 13.81 22.18 33.48 2.52 33.27 2.52"/><polygon class="cls-1" points="35.14 2.52 13.81 23.85 13.81 24.06 35.35 2.52 35.14 2.52"/><polygon class="cls-1" points="37.02 2.52 13.81 25.72 13.81 25.93 37.23 2.52 37.02 2.52"/><polygon class="cls-1" points="38.89 2.52 13.81 27.6 13.81 27.81 39.1 2.52 38.89 2.52"/><polygon class="cls-1" points="40.08 3.21 14.5 28.78 14.71 28.78 40.08 3.42 40.08 3.21"/><polygon class="cls-1" points="40.08 5.08 16.38 28.78 16.59 28.78 40.08 5.29 40.08 5.08"/><polygon class="cls-1" points="40.08 6.96 18.25 28.78 18.46 28.78 40.08 7.17 40.08 6.96"/><polygon class="cls-1" points="40.08 8.83 20.13 28.78 20.34 28.78 40.08 9.04 40.08 8.83"/><polygon class="cls-1" points="40.08 10.71 22 28.78 22.21 28.78 40.08 10.92 40.08 10.71"/><polygon class="cls-1" points="40.08 12.58 23.88 28.78 24.09 28.78 40.08 12.79 40.08 12.58"/><polygon class="cls-1" points="40.08 14.46 25.75 28.78 25.96 28.78 40.08 14.67 40.08 14.46"/><polygon class="cls-1" points="40.08 16.33 27.63 28.78 27.84 28.78 40.08 16.54 40.08 16.33"/><polygon class="cls-1" points="40.08 18.21 29.5 28.78 29.71 28.78 40.08 18.42 40.08 18.21"/><polygon class="cls-1" points="40.08 20.09 31.38 28.78 31.59 28.78 40.08 20.29 40.08 20.09"/><polygon class="cls-1" points="40.08 21.96 33.25 28.78 33.46 28.78 40.08 22.17 40.08 21.96"/><polygon class="cls-1" points="40.08 23.84 35.13 28.78 35.34 28.78 40.08 24.05 40.08 23.84"/><polygon class="cls-1" points="40.08 25.71 37.01 28.78 37.21 28.78 40.08 25.92 40.08 25.71"/><polygon class="cls-1" points="40.08 27.59 38.88 28.78 39.09 28.78 40.08 27.8 40.08 27.59"/><text class="cls-2" transform="translate(0 20.34)">Roofing</text></svg>