<svg id="Layer_1" data-name="Layer 1" xmlns="http://www.w3.org/2000/svg" viewBox="0 0 50.3 31.3"><defs><style>.cls-1{fill:#dcdddc;}.cls-2{font-size:15.08px;fill:#454242;font-family:PoynterOSDisp-Bold, PoynterOSDisp;font-weight:700;letter-spacing:-0.05em;}.cls-3{letter-spacing:0.01em;}</style></defs><title>MMC Wound Care</title><path class="cls-1" d="M40.63,15.65h-.06a15.43,15.43,0,1,1-4.52-10.9,15.36,15.36,0,0,1,4.52,10.9h.12A15.54,15.54,0,1,0,25.15,31.19,15.54,15.54,0,0,0,40.69,15.65Z"/><path class="cls-1" d="M39.39,15.65h-.06a14.17,14.17,0,1,1-4.15-10,14.17,14.17,0,0,1,4.15,10h.13A14.31,14.31,0,1,0,25.15,30,14.31,14.31,0,0,0,39.46,15.65Z"/><path class="cls-1" d="M38.15,15.65h-.06A12.94,12.94,0,1,1,34.3,6.5a12.91,12.91,0,0,1,3.79,9.15h.13A13.07,13.07,0,1,0,25.15,28.72,13.07,13.07,0,0,0,38.22,15.65Z"/><path class="cls-1" d="M36.92,15.65h-.07a11.69,11.69,0,1,1-3.43-8.28,11.64,11.64,0,0,1,3.43,8.28H37A11.83,11.83,0,1,0,25.15,27.48,11.83,11.83,0,0,0,37,15.65Z"/><path class="cls-1" d="M35.68,15.65h-.07a10.45,10.45,0,1,1-3.06-7.4,10.44,10.44,0,0,1,3.06,7.4h.13A10.59,10.59,0,1,0,25.15,26.24,10.59,10.59,0,0,0,35.74,15.65Z"/><path class="cls-1" d="M34.44,15.65h-.06a9.25,9.25,0,1,1-2.71-6.52,9.19,9.19,0,0,1,2.71,6.52h.12A9.35,9.35,0,1,0,25.15,25a9.34,9.34,0,0,0,9.35-9.35Z"/><path class="cls-1" d="M33.2,15.65h-.06A8,8,0,1,1,30.8,10a8,8,0,0,1,2.34,5.65h.13a8.12,8.12,0,1,0-8.12,8.12,8.13,8.13,0,0,0,8.12-8.12Z"/><path class="cls-1" d="M32,15.65H31.9a6.76,6.76,0,1,1-2-4.77,6.74,6.74,0,0,1,2,4.77H32a6.88,6.88,0,1,0-6.88,6.88A6.88,6.88,0,0,0,32,15.65Z"/><path class="cls-1" d="M30.73,15.65h-.07a5.5,5.5,0,1,1-1.61-3.9,5.54,5.54,0,0,1,1.61,3.9h.13a5.64,5.64,0,1,0-5.64,5.64,5.65,5.65,0,0,0,5.64-5.64Z"/><path class="cls-1" d="M29.49,15.65h-.07a4.27,4.27,0,1,1-1.25-3,4.22,4.22,0,0,1,1.25,3h.13a4.4,4.4,0,1,0-4.4,4.4,4.4,4.4,0,0,0,4.4-4.4Z"/><path class="cls-1" d="M28.25,15.65h-.06a3,3,0,1,1-.89-2.15,3,3,0,0,1,.89,2.15h.12a3.16,3.16,0,1,0-3.16,3.16,3.15,3.15,0,0,0,3.16-3.16Z"/><path class="cls-1" d="M27,15.65H27a1.81,1.81,0,1,1-.53-1.27A1.76,1.76,0,0,1,27,15.65h.12a1.93,1.93,0,1,0-1.92,1.92,1.92,1.92,0,0,0,1.92-1.92Z"/><path class="cls-1" d="M25.77,15.65h-.06a.56.56,0,1,1-.56-.56.56.56,0,0,1,.56.56h.13a.69.69,0,1,0-.69.69.69.69,0,0,0,.69-.69Z"/><text class="cls-2" transform="translate(0.2 12.71)">W<tspan class="cls-3" x="14.72" y="0">ound</tspan><tspan class="cls-3"><tspan x="9.51" y="15.27">Care</tspan></tspan></text></svg>