<svg width="122px" height="30px" viewBox="0 0 122 30" version="1.1"
  xmlns="http://www.w3.org/2000/svg"
  xmlns:xlink="http://www.w3.org/1999/xlink">
  <g id="Symbols" stroke="none" stroke-width="1" fill="none" fill-rule="evenodd">
    <g id="MMC_WF_HEADER_DESKTOP_2" transform="translate(-166.000000, -58.000000)" fill="#FFFFFF" fill-rule="nonzero">
      <g id="MMC_WF_HEADER_DESKTOP">
        <path d="M267.352114,64.9887909 L263.127221,69.1007171 L263.127221,76.9178274 L267.352114,81.0112091 L288,81.0112091 L288,88 L264.017336,88 L256,79.8181818 L256,65.8368911 L264.017336,58 L288,58 L288,64.9887909 L267.352114,64.9887909 Z M229.999388,71.3560287 L243.273386,58 L249,63.7402822 L249,88 L242.108485,88 L242.108485,69.0250062 L229.999388,81.2149047 L217.891515,69.0250062 L217.891515,88 L211,88 L211,63.7712305 L216.742521,58.0037138 L229.999388,71.3560287 Z M184.999388,71.3560287 L198.273386,58 L204,63.7402822 L204,88 L197.108485,88 L197.108485,69.0250062 L184.999388,81.2149047 L172.890291,69.0250062 L172.890291,88 L166,88 L166,63.7712305 L171.742521,58.0037138 L184.999388,71.3560287 Z" id="Combined-Shape"></path>
      </g>
    </g>
  </g>
</svg>
