<svg width="79px" height="82px" viewBox="0 0 79 82" version="1.1"
  xmlns="http://www.w3.org/2000/svg"
  xmlns:xlink="http://www.w3.org/1999/xlink">
  <g id="1.0-Growth-Reinvented" stroke="none" stroke-width="1" fill="none" fill-rule="evenodd">
    <g id="1.0-Growth-Reinvented-Desktop" transform="translate(-823.000000, -878.000000)" fill="#07D08C">
      <g id="Group-3" transform="translate(823.000000, 878.000000)">
        <path d="M39.0498,80.814 C18.1238,80.814 1.0998,63.79 1.0998,42.864 C1.0998,21.94 18.1198,4.918 39.0418,4.914 L39.0418,42.875 L66.3308,16.522 C72.9288,23.354 76.9998,32.64 76.9998,42.864 C76.9998,63.79 59.9758,80.814 39.0498,80.814 M69.8828,13.092 C61.3298,4.234 51.3548,0 39.0418,0 L39.0418,3.814 C17.5138,3.818 -0.0002,21.334 -0.0002,42.864 C-0.0002,64.396 17.5178,81.914 39.0498,81.914 C60.5818,81.914 78.0998,64.396 78.0998,42.864 C78.0998,32.343 73.9098,22.788 67.1208,15.759 L69.8828,13.092 Z" id="Fill-1"></path>
      </g>
    </g>
  </g>
</svg>
