<svg width="81px" height="83px" viewBox="0 0 81 83" version="1.1"
  xmlns="http://www.w3.org/2000/svg"
  xmlns:xlink="http://www.w3.org/1999/xlink">
  <g id="1.0-Growth-Reinvented" stroke="none" stroke-width="1" fill="none" fill-rule="evenodd">
    <g id="1.0-Growth-Reinvented-Desktop" transform="translate(-823.000000, -2095.000000)" fill="#07D08C">
      <g id="Group-3-Copy-3" transform="translate(823.000000, 2095.000000)">
        <path d="M76.9998,43.2774 C76.9998,64.2034 59.9758,81.2274 39.0498,81.2274 C18.1238,81.2274 1.0998,64.2034 1.0998,43.2774 C1.0998,22.3514 18.1238,5.3274 39.0498,5.3274 C39.0668,5.3274 39.0838,5.3284 39.1008,5.3284 L39.1008,43.3564 L75.1668,31.6374 C76.3528,35.3074 76.9998,39.2174 76.9998,43.2774 M39.1008,0.0004 L39.1008,4.2284 C39.0838,4.2284 39.0668,4.2274 39.0498,4.2274 C17.5178,4.2274 -0.0002,21.7454 -0.0002,43.2774 C-0.0002,64.8094 17.5178,82.3274 39.0498,82.3274 C60.5818,82.3274 78.0998,64.8094 78.0998,43.2774 C78.0998,39.0984 77.4338,35.0754 76.2128,31.2984 L80.3348,29.9584 C74.4158,11.7404 58.2568,0.0004 39.1008,0.0004" id="Fill-1"></path>
      </g>
    </g>
  </g>
</svg>
