<svg width="83px" height="87px" viewBox="0 0 83 87" version="1.1"
  xmlns="http://www.w3.org/2000/svg"
  xmlns:xlink="http://www.w3.org/1999/xlink">
  <g id="1.0-Growth-Reinvented" stroke="none" stroke-width="1" fill="none" fill-rule="evenodd">
    <g id="1.0-Growth-Reinvented-Desktop" transform="translate(-821.000000, -1479.000000)" fill="#EBE83A">
      <g id="Group-3" transform="translate(820.000000, 1479.000000)">
        <path d="M2.0994,43.3908 C2.0994,22.4648 19.1234,5.4408 40.0494,5.4408 L40.0504,5.4408 L40.0504,43.3558 L28.3144,79.4748 C13.1164,74.5198 2.0994,60.2218 2.0994,43.3908 M40.0504,86.7128 C63.9954,86.7128 83.4064,67.3018 83.4064,43.3558 C83.4064,19.4108 63.9954,-0.0002 40.0504,-0.0002 L40.0504,4.3408 L40.0494,4.3408 C18.5174,4.3408 0.9994,21.8588 0.9994,43.3908 C0.9994,60.7098 12.3354,75.4218 27.9744,80.5208 L26.6524,84.5908 C31.2064,86.0698 35.2614,86.7128 40.0504,86.7128" id="Fill-1"></path>
      </g>
    </g>
  </g>
</svg>
