<svg width="350px" height="350px" viewBox="0 0 350 350" version="1.1"
  xmlns="http://www.w3.org/2000/svg"
  xmlns:xlink="http://www.w3.org/1999/xlink">
  <g id="1.0-Growth-Reinvented" stroke="none" stroke-width="1" fill="none" fill-rule="evenodd">
    <g id="1.0-Growth-Reinvented-Desktop" transform="translate(-545.000000, -3383.000000)" fill="#0072FF">
      <g id="5" transform="translate(0.000000, 2467.000000)">
        <g id="SHAPE-circle-|-lines-|-blue" transform="translate(545.000000, 916.000000)">
          <g id="circle---lines-blue" transform="translate(0.000000, 0.000000)">
            <path d="M348.877892,174.819282 L348.164129,174.819282 C348.161363,222.702771 328.759738,266.045822 297.384603,297.424919 C266.009468,328.801249 222.671888,348.20809 174.794444,348.20809 C126.919767,348.20809 83.5794206,328.801249 52.2070519,297.424919 C20.8319168,266.045822 1.43029229,222.702771 1.42752577,174.819282 C1.43029229,126.935793 20.8319168,83.5927407 52.2070519,52.2136439 C83.5794206,20.837314 126.919767,1.43047289 174.794444,1.43047289 C222.671888,1.43047289 266.009468,20.837314 297.384603,52.2136439 C328.759738,83.5927407 348.161363,126.935793 348.164129,174.819282 L348.877892,174.819282 L349.591655,174.819282 C349.591655,78.2692787 271.335024,1.13686838e-13 174.794444,1.13686838e-13 C78.2566307,1.13686838e-13 0,78.2692787 0,174.819282 C0,271.372051 78.2566307,349.64133 174.794444,349.64133 C271.335024,349.64133 349.591655,271.372051 349.591655,174.819282 L348.877892,174.819282 Z" id="Fill-967"></path>
            <path d="M334.954813,174.819282 L334.24105,174.819282 C334.238283,218.856818 316.394211,258.716378 287.539378,287.577621 C258.684545,316.438864 218.827251,334.28519 174.795274,334.28519 C130.763297,334.28519 90.906003,316.438864 62.0511701,287.577621 C33.1963372,258.716378 15.352265,218.856818 15.3494985,174.819282 C15.352265,130.781745 33.1963372,90.9221849 62.0511701,62.0609418 C90.906003,33.2024655 130.763297,15.3561403 174.795274,15.3561403 C218.827251,15.3561403 258.684545,33.2024655 287.539378,62.0609418 C316.394211,90.9221849 334.238283,130.781745 334.24105,174.819282 L334.954813,174.819282 L335.668576,174.819282 C335.668576,85.9611832 263.644921,13.9256674 174.795274,13.9256674 C85.9456276,13.9256674 13.9219727,85.9611832 13.9219727,174.819282 C13.9219727,263.67738 85.9456276,335.715663 174.795274,335.715663 C263.644921,335.715663 335.668576,263.67738 335.668576,174.819282 L334.954813,174.819282 Z" id="Fill-969"></path>
            <path d="M321.031733,174.819282 L320.31797,174.819282 C320.315204,215.010866 304.028684,251.392468 277.694153,277.730323 C251.356856,304.070946 214.982614,320.359522 174.796104,320.359522 C134.609594,320.359522 98.2325853,304.070946 71.8952882,277.730323 C45.5607575,251.392468 29.2742378,215.010866 29.2742378,174.819282 C29.2742378,134.627697 45.5607575,98.2460954 71.8952882,71.9082397 C98.2325853,45.5703839 134.606827,29.2790408 174.796104,29.2790408 C214.982614,29.2790408 251.356856,45.5703839 277.694153,71.9082397 C304.028684,98.2460954 320.315204,134.627697 320.31797,174.819282 L321.031733,174.819282 L321.745496,174.819282 C321.745496,93.6503208 255.954817,27.8513348 174.796104,27.8513348 C93.6346244,27.8513348 27.8439455,93.6503208 27.8439455,174.819282 C27.8439455,255.988242 93.6346244,321.789995 174.796104,321.789995 C255.954817,321.789995 321.745496,255.988242 321.745496,174.819282 L321.031733,174.819282 Z" id="Fill-971"></path>
            <path d="M307.108654,174.819282 L306.394891,174.819282 C306.392125,211.167681 291.663157,244.06579 267.848929,267.885792 C244.031934,291.705794 211.137978,306.433855 174.794168,306.433855 C138.453124,306.433855 105.556401,291.705794 81.7421728,267.885792 C57.9251779,244.06579 43.1962105,211.167681 43.1962105,174.819282 C43.1962105,138.470882 57.9251779,105.57554 81.7421728,81.7527707 C105.556401,57.9355354 138.453124,43.2047082 174.794168,43.2047082 C211.137978,43.2047082 244.031934,57.9355354 267.848929,81.7527707 C291.663157,105.57554 306.392125,138.470882 306.394891,174.819282 L307.108654,174.819282 L307.822417,174.819282 C307.822417,101.339458 248.264714,41.7742354 174.794168,41.7742354 C101.323621,41.7742354 41.7659182,101.339458 41.7659182,174.819282 C41.7659182,248.299105 101.323621,307.867095 174.794168,307.867095 C248.264714,307.867095 307.822417,248.299105 307.822417,174.819282 L307.108654,174.819282 Z" id="Fill-973"></path>
            <path d="M293.185575,174.819282 L292.471812,174.819282 C292.469045,207.321728 279.300397,236.739113 258.003704,258.038494 C236.707011,279.337876 207.293341,292.508187 174.794997,292.508187 C142.296654,292.508187 112.882984,279.337876 91.5862909,258.038494 C70.2895983,236.739113 57.1209498,207.321728 57.1181832,174.819282 C57.1209498,142.319602 70.2895983,112.89945 91.5862909,91.6000686 C112.882984,70.3034538 142.296654,57.1303757 174.794997,57.1303757 C207.293341,57.1303757 236.707011,70.300687 258.003704,91.6000686 C279.300397,112.89945 292.469045,142.316835 292.471812,174.819282 L293.185575,174.819282 L293.899338,174.819282 C293.899338,109.031363 240.577377,55.6971359 174.794997,55.6971359 C109.015385,55.6971359 55.6906575,109.031363 55.6906575,174.819282 C55.6906575,240.6072 109.015385,293.941427 174.794997,293.941427 C240.577377,293.941427 293.899338,240.6072 293.899338,174.819282 L293.185575,174.819282 Z" id="Fill-975"></path>
            <path d="M279.263602,174.819282 L278.549839,174.819282 C278.547072,203.475776 266.935976,229.412435 248.159586,248.193963 C229.380429,266.972725 203.447044,278.585287 174.794168,278.585287 C146.141291,278.585287 120.207906,266.972725 101.431516,248.193963 C82.6551253,229.412435 71.0440291,203.475776 71.0412626,174.819282 C71.0440291,146.162787 82.6551253,120.226128 101.431516,101.4446 C120.207906,82.6658385 146.141291,71.0532762 174.794168,71.0532762 C203.447044,71.0532762 229.380429,82.6658385 248.159586,101.4446 C266.935976,120.226128 278.547072,146.162787 278.549839,174.819282 L279.263602,174.819282 L279.977365,174.819282 C279.977365,116.720501 232.885613,69.6228033 174.794168,69.6228033 C116.702722,69.6228033 69.6137368,116.720501 69.6137368,174.819282 C69.6137368,232.918062 116.702722,280.01576 174.794168,280.018527 C232.885613,280.01576 279.977365,232.918062 279.977365,174.819282 L279.263602,174.819282 Z" id="Fill-977"></path>
            <path d="M265.340523,174.819282 L264.62676,174.819282 C264.623993,199.632591 254.570449,222.085758 238.314361,238.346666 C222.055507,254.604806 199.602408,264.659619 174.794997,264.659619 C149.987587,264.659619 127.534488,254.604806 111.275634,238.346666 C95.0195457,222.085758 84.9660018,199.632591 84.9660018,174.819282 C84.9660018,150.008739 95.0195457,127.552805 111.275634,111.291898 C127.534488,95.0337569 149.987587,84.9789436 174.794997,84.9789436 C199.602408,84.9789436 222.055507,95.0337569 238.314361,111.291898 C254.570449,127.552805 264.623993,150.008739 264.62676,174.819282 L265.340523,174.819282 L266.054285,174.819282 C266.054285,124.412405 225.198277,83.5484707 174.794997,83.5484707 C124.391718,83.5484707 83.5357096,124.412405 83.5357096,174.819282 C83.5357096,225.228925 124.391718,266.087325 174.794997,266.090092 C225.198277,266.090092 266.054285,225.228925 266.054285,174.819282 L265.340523,174.819282 Z" id="Fill-979"></path>
            <path d="M251.417443,174.819282 L250.70368,174.819282 C250.700914,195.783872 242.207689,214.761848 228.469136,228.499368 C214.730584,242.239655 195.757771,250.733952 174.795827,250.733952 C153.833884,250.733952 134.861071,242.239655 121.122518,228.499368 C107.383966,214.761848 98.8907411,195.783872 98.8879746,174.819282 C98.8907411,153.854691 107.383966,134.876716 121.122518,121.139195 C134.861071,107.401675 153.831118,98.904611 174.795827,98.904611 C195.757771,98.904611 214.730584,107.401675 228.469136,121.139195 C242.207689,134.876716 250.700914,153.854691 250.70368,174.819282 L251.417443,174.819282 L252.131206,174.819282 C252.131206,132.10431 217.508173,97.4741381 174.795827,97.4741381 C132.083482,97.4741381 97.4604488,132.10431 97.4604488,174.819282 C97.4604488,217.534253 132.083482,252.167192 174.795827,252.167192 C217.508173,252.167192 252.131206,217.534253 252.131206,174.819282 L251.417443,174.819282 Z" id="Fill-981"></path>
            <path d="M237.494364,174.819282 L236.780601,174.819282 C236.777834,191.937919 229.842162,207.432403 218.623912,218.654837 C207.405662,229.874503 191.913134,236.811052 174.793891,236.811052 C157.677414,236.811052 142.184887,229.874503 130.966637,218.654837 C119.748387,207.432403 112.812714,191.937919 112.812714,174.819282 C112.812714,157.700644 119.748387,142.20616 130.966637,130.983726 C142.184887,119.766827 157.674648,112.830278 174.793891,112.830278 C191.913134,112.830278 207.405662,119.766827 218.623912,130.983726 C229.842162,142.20616 236.777834,157.700644 236.780601,174.819282 L237.494364,174.819282 L238.208127,174.819282 C238.208127,139.793447 209.81807,111.397039 174.793891,111.397039 C139.772479,111.397039 111.382422,139.793447 111.382422,174.819282 C111.382422,209.845116 139.772479,238.241524 174.793891,238.244291 C209.81807,238.241524 238.208127,209.845116 238.208127,174.819282 L237.494364,174.819282 Z" id="Fill-983"></path>
            <path d="M223.571285,174.819282 L222.857522,174.819282 C222.854755,188.094734 217.476635,200.108493 208.778687,208.807539 C200.080739,217.509352 188.068497,222.885384 174.794721,222.885384 C161.520944,222.885384 149.508702,217.509352 140.810755,208.807539 C132.112807,200.108493 126.734687,188.094734 126.734687,174.819282 C126.734687,161.543829 132.112807,149.53007 140.810755,140.831024 C149.508702,132.131978 161.520944,126.753179 174.794721,126.753179 C188.068497,126.753179 200.080739,132.131978 208.778687,140.831024 C217.476635,149.53007 222.854755,161.543829 222.857522,174.819282 L223.571285,174.819282 L224.285047,174.819282 C224.285047,147.482585 202.130733,125.322706 174.794721,125.322706 C147.461475,125.322706 125.304394,147.482585 125.304394,174.819282 C125.304394,202.155978 147.461475,224.315857 174.794721,224.318624 C202.130733,224.318624 224.285047,202.155978 224.285047,174.819282 L223.571285,174.819282 Z" id="Fill-985"></path>
            <path d="M209.648205,174.819282 L208.934442,174.819282 C208.931676,184.248782 205.113874,192.781815 198.933462,198.963008 C192.755817,205.141433 184.223861,208.962484 174.795551,208.962484 C165.367241,208.962484 156.835285,205.141433 150.654873,198.963008 C144.477227,192.781815 140.659426,184.248782 140.656659,174.819282 C140.659426,165.389781 144.477227,156.859515 150.654873,150.675555 C156.835285,144.49713 165.367241,140.676079 174.795551,140.676079 C184.223861,140.676079 192.755817,144.49713 198.933462,150.675555 C205.113874,156.859515 208.931676,165.389781 208.934442,174.819282 L209.648205,174.819282 L210.361968,174.819282 C210.361968,155.171723 194.440629,139.248373 174.795551,139.248373 C155.150472,139.248373 139.226367,155.171723 139.226367,174.819282 C139.226367,194.46684 155.150472,210.392956 174.795551,210.392956 C194.440629,210.392956 210.361968,194.46684 210.361968,174.819282 L209.648205,174.819282 Z" id="Fill-987"></path>
            <path d="M195.724849,174.819282 L195.011086,174.819282 C195.00832,180.405596 192.748071,185.455138 189.090727,189.11571 C185.427851,192.773515 180.378947,195.036816 174.796104,195.036816 C169.210495,195.036816 164.16159,192.773515 160.501481,189.11571 C156.841371,185.455138 154.581122,180.405596 154.578355,174.819282 C154.581122,169.232967 156.841371,164.183425 160.501481,160.522853 C164.16159,156.865048 169.210495,154.601747 174.796104,154.601747 C180.378947,154.601747 185.427851,156.865048 189.090727,160.522853 C192.748071,164.183425 195.00832,169.232967 195.011086,174.819282 L195.724849,174.819282 L196.438612,174.819282 C196.438612,162.863627 186.750249,153.171274 174.796104,153.171274 C162.839193,153.171274 153.15083,162.863627 153.15083,174.819282 C153.15083,186.774936 162.839193,196.467289 174.796104,196.467289 C186.750249,196.467289 196.438612,186.774936 196.438612,174.819282 L195.724849,174.819282 Z" id="Fill-989"></path>
            <path d="M181.80177,174.819282 L181.088007,174.819282 C181.079707,178.29724 178.26892,181.105615 174.794168,181.111149 C171.319415,181.105615 168.508628,178.29724 168.503095,174.819282 C168.508628,171.34409 171.319415,168.535715 174.794168,168.530181 C178.26892,168.535715 181.079707,171.34409 181.088007,174.819282 L181.80177,174.819282 L182.515533,174.819282 C182.515533,170.555532 179.060146,167.096941 174.794168,167.096941 C170.528189,167.096941 167.072802,170.555532 167.072802,174.819282 C167.072802,179.085798 170.528189,182.544389 174.794168,182.544389 C179.060146,182.544389 182.515533,179.085798 182.515533,174.819282 L181.80177,174.819282 Z" id="Fill-991"></path>
          </g>
        </g>
      </g>
    </g>
  </g>
</svg>
