<svg width="264px" height="264px" viewBox="0 0 264 264" version="1.1"
  xmlns="http://www.w3.org/2000/svg"
  xmlns:xlink="http://www.w3.org/1999/xlink">
  <defs>
    <polygon id="path-1" points="0.00124995508 0.250719841 263.252206 0.250719841 263.252206 263.503759 0.00124995508 263.503759"></polygon>
  </defs>
  <g id="1.0-Growth-Reinvented" stroke="none" stroke-width="1" fill="none" fill-rule="evenodd">
    <g id="1.0-Growth-Reinvented-Desktop-Copy" transform="translate(-588.000000, -2600.000000)">
      <g id="we-create-relationships…" transform="translate(355.000000, 2373.000000)">
        <g id="Circle---Lines" transform="translate(233.000000, 227.000000)">
          <g id="Group-3" transform="translate(0.267267, 0.248120)">
            <mask id="mask-2" fill="white">
              <use xlink:href="#path-1"></use>
            </mask>
            <g id="Clip-2"></g>
            <path d="M262.714726,131.876615 L262.177245,131.876615 C262.175162,167.929486 247.56527,200.56373 223.939036,224.189964 C200.312801,247.814115 167.678558,262.42609 131.625686,262.42609 C95.5748987,262.42609 62.9385715,247.814115 39.3144205,224.189964 C15.6881862,200.56373 1.07829458,167.929486 1.07621132,131.876615 C1.07829458,95.8237436 15.6881862,63.191583 39.3144205,39.5632654 C62.9385715,15.9391144 95.5748987,1.32713949 131.625686,1.32713949 C167.678558,1.32713949 200.312801,15.9391144 223.939036,39.5632654 C247.56527,63.191583 262.175162,95.8237436 262.177245,131.876615 L262.714726,131.876615 L263.252206,131.876615 C263.252206,59.1813104 204.323074,0.250094863 131.625686,0.250094863 C58.9303822,0.250094863 0.00124995508,59.1813104 0.00124995508,131.876615 C0.00124995508,204.574002 58.9303822,263.505218 131.625686,263.505218 C204.323074,263.505218 263.252206,204.574002 263.252206,131.876615 L262.714726,131.876615 Z" id="Fill-1" fill="#DCDDDC" mask="url(#mask-2)"></path>
          </g>
          <path d="M252.812753,131.750839 L252.275534,131.750839 C252.273451,164.891609 238.842953,194.888212 217.125109,216.607952 C195.407265,238.327691 165.408322,251.758074 132.267267,251.758074 C99.1262114,251.758074 69.127268,238.327691 47.409424,216.607952 C25.6915799,194.888212 12.2610819,164.891609 12.2589997,131.750839 C12.2610819,98.6100683 25.6915799,68.6134651 47.409424,46.8937256 C69.127268,25.1760683 99.1262114,11.7456858 132.267267,11.7456858 C165.408322,11.7456858 195.407265,25.1760683 217.125109,46.8937256 C238.842953,68.6134651 252.273451,98.6100683 252.275534,131.750839 L252.812753,131.750839 L253.349973,131.750839 C253.349973,64.8779448 199.140735,10.6691729 132.267267,10.6691729 C65.3937978,10.6691729 11.1845598,64.8779448 11.1845598,131.750839 C11.1845598,198.62165 65.3937978,252.834586 132.267267,252.834586 C199.140735,252.834586 253.349973,198.62165 253.349973,131.750839 L252.812753,131.750839 Z" id="Fill-4" fill="#DCDDDC"></path>
          <path d="M241.895179,132.247079 L241.357678,132.247079 C241.355595,162.509632 229.09099,189.903431 209.259705,209.734716 C189.426336,229.568084 162.034621,241.832689 131.772068,241.832689 C101.509514,241.832689 74.1157156,229.568084 54.2823472,209.734716 C34.4510621,189.903431 22.1864571,162.509632 22.1864571,132.247079 C22.1864571,101.984525 34.4510621,74.5907266 54.2823472,54.7594415 C74.1157156,34.9281564 101.507431,22.6635514 131.772068,22.6614681 C162.034621,22.6635514 189.426336,34.9281564 209.259705,54.7594415 C229.09099,74.5907266 241.355595,101.984525 241.357678,132.247079 L241.895179,132.247079 L242.43268,132.247079 C242.43268,71.1303038 192.888842,21.5864662 131.772068,21.5864662 C70.6532095,21.5864662 21.1093719,71.1303038 21.1093719,132.247079 C21.1093719,193.363853 70.6532095,242.909774 131.772068,242.909774 C192.888842,242.909774 242.43268,193.363853 242.43268,132.247079 L241.895179,132.247079 Z" id="Fill-6" fill="#DCDDDC"></path>
          <path d="M231.473787,132.247078 L230.935946,132.247078 C230.933861,159.632897 219.835162,184.419178 201.890458,202.365781 C183.943669,220.312383 159.157129,231.408882 131.771026,231.408882 C104.387007,231.408882 79.5983831,220.312383 61.653679,202.365781 C43.7068902,184.419178 32.6081908,159.632897 32.6081908,132.247078 C32.6081908,104.863344 43.7068902,80.0749776 61.653679,62.1283754 C79.5983831,44.1838579 104.387007,33.0852739 131.771026,33.0852739 C159.157129,33.0852739 183.943669,44.1838579 201.890458,62.1283754 C219.835162,80.0749776 230.933861,104.863344 230.935946,132.247078 L231.473787,132.247078 L232.011627,132.247078 C232.011627,76.8854897 187.13319,32.0075188 131.771026,32.0075188 C76.408862,32.0075188 31.5304245,76.8854897 31.5304245,132.247078 C31.5304245,187.608666 76.408862,232.488722 131.771026,232.488722 C187.13319,232.488722 232.011627,187.608666 232.011627,132.247078 L231.473787,132.247078 Z" id="Fill-8" fill="#DCDDDC"></path>
          <path d="M221.052308,132.247077 L220.514042,132.247077 C220.511956,156.754603 210.58115,178.935926 194.520784,194.996106 C178.460418,211.056286 156.278836,220.986976 131.771026,220.986976 C107.263216,220.986976 85.0816345,211.056286 69.0212682,194.996106 C52.960902,178.935926 43.0300962,156.754603 43.0280099,132.247077 C43.0300962,107.739552 52.960902,85.5582279 69.0212682,69.4980482 C85.0816345,53.4378684 107.263216,43.5071779 131.771026,43.5050917 C156.278836,43.5071779 178.460418,53.4378684 194.520784,69.4980482 C210.58115,85.5582279 220.511956,107.739552 220.514042,132.247077 L221.052308,132.247077 L221.590575,132.247077 C221.590575,82.6416091 181.379156,42.4285714 131.771026,42.4285714 C82.1649818,42.4285714 41.9514771,82.6416091 41.9514771,132.247077 C41.9514771,181.852545 82.1649818,222.067669 131.771026,222.067669 C181.379156,222.067669 221.590575,181.852545 221.590575,132.247077 L221.052308,132.247077 Z" id="Fill-10" fill="#DCDDDC"></path>
          <path d="M211.126965,131.750836 L210.588168,131.750836 C210.586079,153.379437 201.821222,172.955231 187.647506,187.130663 C173.471702,201.304006 153.895392,210.068633 132.266222,210.068633 C110.637052,210.068633 91.0607429,201.304006 76.8870269,187.130663 C62.7133109,172.955231 53.9484537,153.379437 53.9463654,131.750836 C53.9484537,110.122235 62.7133109,90.5464398 76.8870269,76.3710083 C91.0607429,62.1976651 110.637052,53.4351268 132.266222,53.4330384 C153.895392,53.4351268 173.471702,62.1976651 187.647506,76.3710083 C201.821222,90.5464398 210.586079,110.122235 210.588168,131.750836 L211.126965,131.750836 L211.665763,131.750836 C211.665763,87.9005541 176.117657,52.3533835 132.266222,52.3533835 C88.4147876,52.3533835 52.8687704,87.9005541 52.8687704,131.750836 C52.8687704,175.601117 88.4147876,211.148288 132.266222,211.150376 C176.117657,211.148288 211.665763,175.601117 211.665763,131.750836 L211.126965,131.750836 Z" id="Fill-12" fill="#DCDDDC"></path>
          <path d="M200.210919,132 L199.673369,132 C199.671286,150.685075 192.099747,167.592901 179.856939,179.837793 C167.612047,192.0806 150.702138,199.65214 132.019146,199.65214 C113.336155,199.65214 96.4262451,192.0806 84.1813537,179.837793 C71.9385458,167.592901 64.3670067,150.685075 64.3670067,132 C64.3670067,113.317008 71.9385458,96.4070989 84.1813537,84.164291 C96.4262451,71.9193996 113.336155,64.3478604 132.019146,64.3478604 C150.702138,64.3478604 167.612047,71.9193996 179.856939,84.164291 C192.099747,96.4070989 199.671286,113.317008 199.673369,132 L200.210919,132 L200.74847,132 C200.74847,94.0422951 169.978935,63.2706767 132.019146,63.2706767 C94.0593578,63.2706767 63.289823,94.0422951 63.289823,132 C63.289823,169.959788 94.0593578,200.72724 132.019146,200.729323 C169.978935,200.729323 200.74847,169.959788 200.74847,132 L200.210919,132 Z" id="Fill-14" fill="#DCDDDC"></path>
          <path d="M189.791554,132.247082 L189.255691,132.247082 C189.253614,147.984146 182.877257,162.229959 172.56293,172.542025 C162.248603,182.856167 148.004612,189.23241 132.267267,189.23241 C116.529921,189.23241 102.28593,182.856167 91.9716031,172.542025 C81.6572757,162.229959 75.2809195,147.984146 75.2788425,132.247082 C75.2809195,116.510018 81.6572757,102.266282 91.9716031,91.9521391 C102.28593,81.6379962 116.527844,75.261754 132.267267,75.261754 C148.004612,75.261754 162.248603,81.6379962 172.56293,91.9521391 C182.877257,102.266282 189.253614,116.507941 189.255691,132.247082 L189.791554,132.247082 L190.327417,132.247082 C190.327417,100.181022 164.3339,74.1879699 132.267267,74.1879699 C100.200633,74.1879699 74.2071162,100.181022 74.2071162,132.247082 C74.2071162,164.311064 100.200633,190.308271 132.267267,190.308271 C164.3339,190.308271 190.327417,164.311064 190.327417,132.247082 L189.791554,132.247082 Z" id="Fill-16" fill="#DCDDDC"></path>
          <path d="M179.370148,132.246042 L178.833931,132.246042 C178.831853,145.104566 173.621408,156.743121 165.193663,165.17276 C156.765919,173.60032 145.127111,178.810652 132.266227,178.810652 C119.407422,178.810652 107.768614,173.60032 99.3408697,165.17276 C90.9131254,156.743121 85.7026803,145.104566 85.7026803,132.246042 C85.7026803,119.387518 90.9131254,107.748963 99.3408697,99.3214025 C107.768614,90.893842 119.405344,85.6835105 132.266227,85.6814322 C145.127111,85.6835105 156.765919,90.893842 165.193663,99.3214025 C173.621408,107.748963 178.831853,119.385439 178.833931,132.246042 L179.370148,132.246042 L179.906364,132.246042 C179.906364,105.934595 158.578248,84.6090226 132.266227,84.6090226 C105.956285,84.6090226 84.6281688,105.934595 84.6281688,132.246042 C84.6281688,158.55541 105.956285,179.88514 132.266227,179.887218 C158.578248,179.88514 179.906364,158.55541 179.906364,132.246042 L179.370148,132.246042 Z" id="Fill-18" fill="#DCDDDC"></path>
          <path d="M168.944965,131.998953 L168.404617,131.998953 C168.402523,142.047454 164.33107,151.14095 157.746374,157.725461 C151.161678,164.312068 142.067928,168.381313 132.019146,168.381313 C121.970364,168.381313 112.876614,164.312068 106.291919,157.725461 C99.7072228,151.14095 95.6357696,142.047454 95.6357696,131.998953 C95.6357696,121.950452 99.7072228,112.85905 106.291919,106.272444 C112.876614,99.6879324 121.970364,95.616593 132.019146,95.616593 C142.067928,95.616593 151.161678,99.6879324 157.746374,106.272444 C164.33107,112.85905 168.402523,121.950452 168.404617,131.998953 L168.944965,131.998953 L169.485312,131.998953 C169.485312,111.307166 152.713605,94.5338346 132.019146,94.5338346 C111.326781,94.5338346 94.5529809,111.307166 94.5529809,131.998953 C94.5529809,152.690739 111.326781,169.464071 132.019146,169.466165 C152.713605,169.466165 169.485312,152.690739 169.485312,131.998953 L168.944965,131.998953 Z" id="Fill-20" fill="#DCDDDC"></path>
          <path d="M158.030265,132.247078 L157.492512,132.247078 C157.490428,139.350423 154.614073,145.778449 149.957714,150.434809 C145.303439,155.089083 138.875413,157.967522 131.772068,157.967522 C124.668724,157.967522 118.240697,155.089083 113.584338,150.434809 C108.930063,145.778449 106.053709,139.350423 106.051624,132.247078 C106.053709,125.143734 108.930063,118.715707 113.584338,114.059348 C118.240697,109.405073 124.668724,106.528719 131.772068,106.526634 C138.875413,106.528719 145.303439,109.405073 149.957714,114.059348 C154.614073,118.715707 157.490428,125.143734 157.492512,132.247078 L158.030265,132.247078 L158.568018,132.247078 C158.568018,117.446359 146.572787,105.451128 131.772068,105.451128 C116.971349,105.451128 104.974034,117.446359 104.974034,132.247078 C104.974034,147.047797 116.971349,159.045113 131.772068,159.045113 C146.572787,159.045113 158.568018,147.047797 158.568018,132.247078 L158.030265,132.247078 Z" id="Fill-22" fill="#DCDDDC"></path>
          <path d="M147.606927,132.24812 L147.066889,132.24812 C147.064795,136.473967 145.354673,140.293764 142.587498,143.062855 C139.816137,145.829853 135.996096,147.541959 131.772073,147.541959 C127.545956,147.541959 123.725915,145.829853 120.956647,143.062855 C118.187379,140.293764 116.477257,136.473967 116.475163,132.24812 C116.477257,128.022274 118.187379,124.202477 120.956647,121.433386 C123.725915,118.666388 127.545956,116.954282 131.772073,116.954282 C135.996096,116.954282 139.816137,118.666388 142.587498,121.433386 C145.354673,124.202477 147.064795,128.022274 147.066889,132.24812 L147.606927,132.24812 L148.146966,132.24812 C148.146966,123.204097 140.816674,115.87218 131.772073,115.87218 C122.725378,115.87218 115.395086,123.204097 115.395086,132.24812 C115.395086,141.292143 122.725378,148.62406 131.772073,148.62406 C140.816674,148.62406 148.146966,141.292143 148.146966,132.24812 L147.606927,132.24812 Z" id="Fill-24" fill="#DCDDDC"></path>
          <path d="M137.671684,132.247054 L137.121214,132.247054 C137.114814,134.928513 134.947073,137.093732 132.267267,137.097999 C129.587461,137.093732 127.41972,134.928513 127.415452,132.247054 C127.41972,129.567728 129.587461,127.402508 132.267267,127.398242 C134.947073,127.402508 137.114814,129.567728 137.121214,132.247054 L137.671684,132.247054 L138.222154,132.247054 C138.222154,128.95976 135.557283,126.293233 132.267267,126.293233 C128.97725,126.293233 126.312379,128.95976 126.312379,132.247054 C126.312379,135.536481 128.97725,138.203008 132.267267,138.203008 C135.557283,138.203008 138.222154,135.536481 138.222154,132.247054 L137.671684,132.247054 Z" id="Fill-26" fill="#DCDDDC"></path>
        </g>
      </g>
    </g>
  </g>
</svg>
