<svg width="212px" height="444px" viewBox="0 0 212 444" version="1.1"
  xmlns="http://www.w3.org/2000/svg"
  xmlns:xlink="http://www.w3.org/1999/xlink">
  <defs>
    <polygon id="path-1" points="0.00210693186 0.422614883 443.739514 0.422614883 443.739514 444.163534 0.00210693186 444.163534"></polygon>
  </defs>
  <g id="4.0-Contact-Us" stroke="none" stroke-width="1" fill="none" fill-rule="evenodd">
    <g id="4.0-Contact-Us-Desktop-B-Copy-3" transform="translate(-1228.000000, -194.000000)">
      <g id="Circle---Lines" transform="translate(1228.000000, 193.000000)">
        <g>
          <g id="Group-3" transform="translate(0.450506, 0.418233)">
            <mask id="mask-2" fill="white">
              <use xlink:href="#path-1"></use>
            </mask>
            <g id="Clip-2"></g>
            <path d="M442.833534,222.292021 L441.927553,222.292021 C441.924041,283.062959 417.297519,338.071438 377.472996,377.895962 C337.648472,417.716974 282.639993,442.347007 221.869055,442.347007 C161.101628,442.347007 106.089638,417.716974 66.2686255,377.895962 C26.4441018,338.071438 1.81757988,283.062959 1.81406833,222.292021 C1.81757988,161.521083 26.4441018,106.516115 66.2686255,66.68808 C106.089638,26.8670678 161.101628,2.23703437 221.869055,2.23703437 C282.639993,2.23703437 337.648472,26.8670678 377.472996,66.68808 C417.297519,106.516115 441.924041,161.521083 441.927553,222.292021 L442.833534,222.292021 L443.739514,222.292021 C443.739514,99.7563755 344.408212,0.421561417 221.869055,0.421561417 C99.3334095,0.421561417 0.00210693186,99.7563755 0.00210693186,222.292021 C0.00210693186,344.831178 99.3334095,444.165992 221.869055,444.165992 C344.408212,444.165992 443.739514,344.831178 443.739514,222.292021 L442.833534,222.292021 Z" id="Fill-1" fill="#DCDDDC" mask="url(#mask-2)"></path>
          </g>
          <path d="M426.142709,222.080012 L425.237168,222.080012 C425.233658,277.942295 402.59513,328.504751 365.9874,365.115676 C329.37967,401.726601 278.81327,424.364935 222.950506,424.364935 C167.087743,424.364935 116.521342,401.726601 79.9136124,365.115676 C43.3058828,328.504751 20.667354,277.942295 20.6638441,222.080012 C20.667354,166.217729 43.3058828,115.655273 79.9136124,79.0443481 C116.521342,42.4369333 167.087743,19.7985991 222.950506,19.7985991 C278.81327,19.7985991 329.37967,42.4369333 365.9874,79.0443481 C402.59513,115.655273 425.233658,166.217729 425.237168,222.080012 L426.142709,222.080012 L427.048251,222.080012 C427.048251,109.358657 335.67283,17.9840226 222.950506,17.9840226 C110.228182,17.9840226 18.8527618,109.358657 18.8527618,222.080012 C18.8527618,334.797857 110.228182,426.179511 222.950506,426.179511 C335.67283,426.179511 427.048251,334.797857 427.048251,222.080012 L426.142709,222.080012 Z" id="Fill-4" fill="#DCDDDC"></path>
          <path d="M407.73998,222.916477 L406.833965,222.916477 C406.830454,273.927221 386.157161,320.102374 352.729427,353.530108 C319.298181,386.961354 273.12654,407.634647 222.115796,407.634647 C171.105052,407.634647 124.929899,386.961354 91.4986535,353.530108 C58.0709191,320.102374 37.3976265,273.927221 37.3976265,222.916477 C37.3976265,171.905734 58.0709191,125.730581 91.4986535,92.3028465 C124.929899,58.8751122 171.101541,38.2018196 222.115796,38.1983079 C273.12654,38.2018196 319.298181,58.8751122 352.729427,92.3028465 C386.157161,125.730581 406.830454,171.905734 406.833965,222.916477 L407.73998,222.916477 L408.645995,222.916477 C408.645995,119.897671 325.134602,36.3862782 222.115796,36.3862782 C119.093478,36.3862782 35.5820851,119.897671 35.5820851,222.916477 C35.5820851,325.935283 119.093478,409.450188 222.115796,409.450188 C325.134602,409.450188 408.645995,325.935283 408.645995,222.916477 L407.73998,222.916477 Z" id="Fill-6" fill="#DCDDDC"></path>
          <path d="M390.173618,222.916476 L389.26703,222.916476 C389.263516,269.078178 370.555481,310.858085 340.307779,341.108986 C310.056563,371.359888 268.276222,390.064214 222.11404,390.064214 C175.955372,390.064214 134.171517,371.359888 103.923815,341.108986 C73.672599,310.858085 54.964564,269.078178 54.964564,222.916476 C54.964564,176.758288 73.672599,134.974868 103.923815,104.723966 C134.171517,74.4765786 175.955372,55.7687381 222.11404,55.7687381 C268.276222,55.7687381 310.056563,74.4765786 340.307779,104.723966 C370.555481,134.974868 389.263516,176.758288 389.26703,222.916476 L390.173618,222.916476 L391.080205,222.916476 C391.080205,129.598647 315.432839,53.9520677 222.11404,53.9520677 C128.795241,53.9520677 53.1478746,129.598647 53.1478746,222.916476 C53.1478746,316.234305 128.795241,391.884398 222.11404,391.884398 C315.432839,391.884398 391.080205,316.234305 391.080205,222.916476 L390.173618,222.916476 Z" id="Fill-8" fill="#DCDDDC"></path>
          <path d="M372.607111,222.916475 L371.699806,222.916475 C371.696289,264.226508 354.956863,301.615482 327.885412,328.686618 C300.813961,355.757755 263.424553,372.496987 222.11404,372.496987 C180.803527,372.496987 143.414119,355.757755 116.342668,328.686618 C89.2712174,301.615482 72.5317909,264.226508 72.5282742,222.916475 C72.5317909,181.606441 89.2712174,144.217467 116.342668,117.146331 C143.414119,90.0751949 180.803527,73.3359628 222.11404,73.3324462 C263.424553,73.3359628 300.813961,90.0751949 327.885412,117.146331 C354.956863,144.217467 371.696289,181.606441 371.699806,222.916475 L372.607111,222.916475 L373.514416,222.916475 C373.514416,139.301197 305.733805,71.5178571 222.11404,71.5178571 C138.497791,71.5178571 70.7136641,139.301197 70.7136641,222.916475 C70.7136641,306.531752 138.497791,374.318609 222.11404,374.318609 C305.733805,374.318609 373.514416,306.531752 373.514416,222.916475 L372.607111,222.916475 Z" id="Fill-10" fill="#DCDDDC"></path>
          <path d="M355.876892,222.080007 L354.968692,222.080007 C354.965172,258.537308 340.191075,291.534386 316.299774,315.428579 C292.404952,339.319252 259.407006,354.09296 222.948746,354.09296 C186.490486,354.09296 153.49254,339.319252 129.601239,315.428579 C105.709937,291.534386 90.9358406,258.537308 90.9323204,222.080007 C90.9358406,185.622706 105.709937,152.625628 129.601239,128.731434 C153.49254,104.840761 186.490486,90.0705735 222.948746,90.0670534 C259.407006,90.0705735 292.404952,104.840761 316.299774,128.731434 C340.191075,152.625628 354.965172,185.622706 354.968692,222.080007 L355.876892,222.080007 L356.785093,222.080007 C356.785093,148.165707 296.86499,88.2471805 222.948746,88.2471805 C149.032502,88.2471805 89.1159197,148.165707 89.1159197,222.080007 C89.1159197,295.994307 149.032502,355.912833 222.948746,355.916353 C296.86499,355.912833 356.785093,295.994307 356.785093,222.080007 L355.876892,222.080007 Z" id="Fill-12" fill="#DCDDDC"></path>
          <path d="M337.476739,222.5 L336.570642,222.5 C336.56713,253.995676 323.804497,282.49561 303.167946,303.135673 C282.527883,323.772224 254.024437,336.534856 222.532273,336.534856 C191.040109,336.534856 162.536663,323.772224 141.8966,303.135673 C121.260049,282.49561 108.497417,253.995676 108.497417,222.5 C108.497417,191.007836 121.260049,162.50439 141.8966,141.867839 C162.536663,121.227776 191.040109,108.465144 222.532273,108.465144 C254.024437,108.465144 282.527883,121.227776 303.167946,141.867839 C323.804497,162.50439 336.56713,191.007836 336.570642,222.5 L337.476739,222.5 L338.382837,222.5 C338.382837,158.518263 286.517523,106.649436 222.532273,106.649436 C158.547024,106.649436 106.681709,158.518263 106.681709,222.5 C106.681709,286.485249 158.547024,338.347052 222.532273,338.350564 C286.517523,338.350564 338.382837,286.485249 338.382837,222.5 L337.476739,222.5 Z" id="Fill-14" fill="#DCDDDC"></path>
          <path d="M319.913793,222.916483 L319.010539,222.916483 C319.007038,249.442973 308.259013,273.455802 290.873121,290.837882 C273.487228,308.223464 249.477471,318.971297 222.950506,318.971297 C196.423541,318.971297 172.413784,308.223464 155.027892,290.837882 C137.641999,273.455802 126.893974,249.442973 126.890473,222.916483 C126.893974,196.389992 137.641999,172.380665 155.027892,154.995083 C172.413784,137.609501 196.42004,126.861669 222.950506,126.861669 C249.477471,126.861669 273.487228,137.609501 290.873121,154.995083 C308.259013,172.380665 319.007038,196.386491 319.010539,222.916483 L319.913793,222.916483 L320.817048,222.916483 C320.817048,168.865738 277.002217,125.051692 222.950506,125.051692 C168.898795,125.051692 125.083965,168.865738 125.083965,222.916483 C125.083965,276.963726 168.898795,320.784774 222.950506,320.784774 C277.002217,320.784774 320.817048,276.963726 320.817048,222.916483 L319.913793,222.916483 Z" id="Fill-16" fill="#DCDDDC"></path>
          <path d="M302.347408,222.91473 L301.443558,222.91473 C301.440055,244.589137 292.657297,264.207155 278.45144,278.416205 C264.245583,292.621752 244.627137,301.404318 222.948755,301.404318 C201.273875,301.404318 181.655429,292.621752 167.449572,278.416205 C153.243715,264.207155 144.460957,244.589137 144.460957,222.91473 C144.460957,201.240323 153.243715,181.622305 167.449572,167.416758 C181.655429,153.211211 201.270372,144.428645 222.948755,144.425141 C244.627137,144.428645 264.245583,153.211211 278.45144,167.416758 C292.657297,181.622305 301.440055,201.23682 301.443558,222.91473 L302.347408,222.91473 L303.251258,222.91473 C303.251258,178.563996 267.300456,142.617481 222.948755,142.617481 C178.600557,142.617481 142.649754,178.563996 142.649754,222.91473 C142.649754,267.26196 178.600557,303.215482 222.948755,303.218985 C267.300456,303.215482 303.251258,267.26196 303.251258,222.91473 L302.347408,222.91473 Z" id="Fill-18" fill="#DCDDDC"></path>
          <path d="M284.774656,222.498235 L283.863844,222.498235 C283.860313,239.436049 276.997447,254.764101 265.898244,265.862994 C254.799041,276.965417 239.470561,283.824561 222.532273,283.824561 C205.593985,283.824561 190.265505,276.965417 179.166302,265.862994 C168.067099,254.764101 161.204233,239.436049 161.204233,222.498235 C161.204233,205.56042 168.067099,190.235899 179.166302,179.133476 C190.265505,168.034583 205.593985,161.171909 222.532273,161.171909 C239.470561,161.171909 254.799041,168.034583 265.898244,179.133476 C276.997447,190.235899 283.860313,205.56042 283.863844,222.498235 L284.774656,222.498235 L285.685469,222.498235 C285.685469,187.620034 257.414979,159.346805 222.532273,159.346805 C187.653098,159.346805 159.379078,187.620034 159.379078,222.498235 C159.379078,257.376436 187.653098,285.649665 222.532273,285.653195 C257.414979,285.653195 285.685469,257.376436 285.685469,222.498235 L284.774656,222.498235 Z" id="Fill-20" fill="#DCDDDC"></path>
          <path d="M266.376773,222.916476 L265.470333,222.916476 C265.46682,234.889917 260.618419,245.725038 252.769632,253.573825 C244.924358,261.419099 234.089237,266.271013 222.115797,266.271013 C210.142356,266.271013 199.307235,261.419099 191.458448,253.573825 C183.613174,245.725038 178.764774,234.889917 178.761261,222.916476 C178.764774,210.943036 183.613174,200.107915 191.458448,192.259128 C199.307235,184.413854 210.142356,179.565454 222.115797,179.56194 C234.089237,179.565454 244.924358,184.413854 252.769632,192.259128 C260.618419,200.107915 265.46682,210.943036 265.470333,222.916476 L266.376773,222.916476 L267.283213,222.916476 C267.283213,197.968295 247.063978,177.74906 222.115797,177.74906 C197.167615,177.74906 176.944867,197.968295 176.944867,222.916476 C176.944867,247.864658 197.167615,268.087406 222.115797,268.087406 C247.063978,268.087406 267.283213,247.864658 267.283213,222.916476 L266.376773,222.916476 Z" id="Fill-22" fill="#DCDDDC"></path>
          <path d="M248.807131,222.918233 L247.896839,222.918233 C247.89331,230.041345 245.010718,236.480018 240.346351,241.147615 C235.674928,245.811683 229.235843,248.69762 222.115804,248.69762 C214.992237,248.69762 208.553152,245.811683 203.885257,241.147615 C199.217362,236.480018 196.33477,230.041345 196.331241,222.918233 C196.33477,215.795121 199.217362,209.356448 203.885257,204.688851 C208.553152,200.024783 214.992237,197.138846 222.115804,197.138846 C229.235843,197.138846 235.674928,200.024783 240.346351,204.688851 C245.010718,209.356448 247.89331,215.795121 247.896839,222.918233 L248.807131,222.918233 L249.717423,222.918233 C249.717423,207.673573 237.361438,195.31485 222.115804,195.31485 C206.866642,195.31485 194.510657,207.673573 194.510657,222.918233 C194.510657,238.162893 206.866642,250.521617 222.115804,250.521617 C237.361438,250.521617 249.717423,238.162893 249.717423,222.918233 L248.807131,222.918233 Z" id="Fill-24" fill="#DCDDDC"></path>
          <path d="M232.060225,222.916435 L231.13235,222.916435 C231.121561,227.436319 227.467603,231.086026 222.950506,231.093218 C218.433409,231.086026 214.779452,227.436319 214.772259,222.916435 C214.779452,218.400147 218.433409,214.75044 222.950506,214.743248 C227.467603,214.75044 231.121561,218.400147 231.13235,222.916435 L232.060225,222.916435 L232.9881,222.916435 C232.9881,217.375353 228.496178,212.880639 222.950506,212.880639 C217.404834,212.880639 212.912912,217.375353 212.912912,222.916435 C212.912912,228.461114 217.404834,232.955827 222.950506,232.955827 C228.496178,232.955827 232.9881,228.461114 232.9881,222.916435 L232.060225,222.916435 Z" id="Fill-26" fill="#DCDDDC"></path>
        </g>
      </g>
    </g>
  </g>
</svg>
