<svg width="549px" height="558px" viewBox="0 0 549 558" version="1.1"
  xmlns="http://www.w3.org/2000/svg"
  xmlns:xlink="http://www.w3.org/1999/xlink">
  <defs>
    <rect id="path-1" x="0" y="0" width="742" height="558"></rect>
    <polygon id="path-3" points="0.0743492887 0.394462332 307.733831 0.394462332 307.733831 307.926599 0.0743492887 307.926599"></polygon>
  </defs>
  <g id="1.0-Growth-Reinvented" stroke="none" stroke-width="1" fill="none" fill-rule="evenodd">
    <g id="1.0-Growth-Reinvented-Desktop" transform="translate(-446.000000, -88.000000)">
      <g id="1" transform="translate(-28.000000, 87.000000)">
        <g id="SHAPE-circle-|-dots-|-yellow-+-SHAPE-circle-|-lines-|-yellow-Mask" transform="translate(342.000000, 1.000000)">
          <mask id="mask-2" fill="white">
            <use xlink:href="#path-1"></use>
          </mask>
          <g id="Mask"></g>
          <g id="SHAPE-circle-|-lines-|-blue" mask="url(#mask-2)">
            <g transform="translate(132.000000, 283.000000)" id="circle---lines-blue">
              <g transform="translate(0.000000, 0.000000)">
                <path d="M547.239893,274.716014 L546.120305,274.716014 C546.115966,349.961497 515.683132,418.072007 466.468991,467.382016 C417.254851,516.687677 349.276761,547.184142 274.177571,547.184142 C199.08272,547.184142 131.100291,516.687677 81.8904901,467.382016 C32.6763494,418.072007 2.24351562,349.961497 2.23917614,274.716014 C2.24351562,199.470531 32.6763494,131.360021 81.8904901,82.0500118 C131.100291,32.7443505 199.08272,2.24788597 274.177571,2.24788597 C349.276761,2.24788597 417.254851,32.7443505 466.468991,82.0500118 C515.683132,131.360021 546.115966,199.470531 546.120305,274.716014 L547.239893,274.716014 L548.359482,274.716014 C548.359482,122.994581 425.608366,1.13686838e-13 274.177571,1.13686838e-13 C122.751115,1.13686838e-13 0,122.994581 0,274.716014 C0,426.441795 122.751115,549.436376 274.177571,549.436376 C425.608366,549.436376 548.359482,426.441795 548.359482,274.716014 L547.239893,274.716014 Z" id="Fill-967" fill="#0072FF"></path>
                <path d="M525.400549,274.716014 L524.280961,274.716014 C524.276621,343.917857 496.28692,406.554308 451.026053,451.907691 C405.765187,497.261073 343.246174,525.305298 274.178873,525.305298 C205.111572,525.305298 142.592559,497.261073 97.3316925,451.907691 C52.070826,406.554308 24.0811243,343.917857 24.0767848,274.716014 C24.0811243,205.51417 52.070826,142.877719 97.3316925,97.5243371 C142.592559,52.1753029 205.111572,24.1310776 274.178873,24.1310776 C343.246174,24.1310776 405.765187,52.1753029 451.026053,97.5243371 C496.28692,142.877719 524.276621,205.51417 524.280961,274.716014 L525.400549,274.716014 L526.520137,274.716014 C526.520137,135.081859 413.54589,21.8831916 274.178873,21.8831916 C134.811856,21.8831916 21.8376087,135.081859 21.8376087,274.716014 C21.8376087,414.350168 134.811856,527.553184 274.178873,527.553184 C413.54589,527.553184 526.520137,414.350168 526.520137,274.716014 L525.400549,274.716014 Z" id="Fill-969" fill="#0072FF"></path>
                <path d="M503.561205,274.716014 L502.441616,274.716014 C502.437277,337.874218 476.890707,395.045306 435.583115,436.433365 C394.271183,477.825772 337.215587,503.422106 274.180175,503.422106 C211.144763,503.422106 154.084827,477.825772 112.772895,436.433365 C71.4653026,395.045306 45.918733,337.874218 45.918733,274.716014 C45.918733,211.55781 71.4653026,154.386721 112.772895,112.998662 C154.084827,71.6106033 211.140423,46.0099213 274.180175,46.0099213 C337.215587,46.0099213 394.271183,71.6106033 435.583115,112.998662 C476.890707,154.386721 502.437277,211.55781 502.441616,274.716014 L503.561205,274.716014 L504.680793,274.716014 C504.680793,147.16479 401.483413,43.7663833 274.180175,43.7663833 C146.872597,43.7663833 43.6752173,147.16479 43.6752173,274.716014 C43.6752173,402.267238 146.872597,505.669992 274.180175,505.669992 C401.483413,505.669992 504.680793,402.267238 504.680793,274.716014 L503.561205,274.716014 Z" id="Fill-971" fill="#0072FF"></path>
                <path d="M481.72186,274.716014 L480.602272,274.716014 C480.597933,331.834927 457.494495,383.531956 420.140177,420.963388 C382.781519,458.39482 331.184999,481.538915 274.177137,481.538915 C217.173614,481.538915 165.572755,458.39482 128.218437,420.963388 C90.8597791,383.531956 67.7563416,331.834927 67.7563416,274.716014 C67.7563416,217.597101 90.8597791,165.90442 128.218437,128.46864 C165.572755,91.0415557 217.173614,67.893113 274.177137,67.893113 C331.184999,67.893113 382.781519,91.0415557 420.140177,128.46864 C457.494495,165.90442 480.597933,217.597101 480.602272,274.716014 L481.72186,274.716014 L482.841448,274.716014 C482.841448,159.24772 389.420937,65.645227 274.177137,65.645227 C158.933337,65.645227 65.512826,159.24772 65.512826,274.716014 C65.512826,390.184307 158.933337,483.791149 274.177137,483.791149 C389.420937,483.791149 482.841448,390.184307 482.841448,274.716014 L481.72186,274.716014 Z" id="Fill-973" fill="#0072FF"></path>
                <path d="M459.882516,274.716014 L458.762928,274.716014 C458.758588,325.791287 438.102622,372.018606 404.697239,405.489063 C371.291855,438.95952 325.154412,459.655723 274.178439,459.655723 C223.202466,459.655723 177.065023,438.95952 143.659639,405.489063 C110.254256,372.018606 89.5982898,325.791287 89.5939503,274.716014 C89.5982898,223.645088 110.254256,177.413422 143.659639,143.942965 C177.065023,110.476856 223.202466,89.7763046 274.178439,89.7763046 C325.154412,89.7763046 371.291855,110.472508 404.697239,143.942965 C438.102622,177.413422 458.758588,223.64074 458.762928,274.716014 L459.882516,274.716014 L461.002104,274.716014 C461.002104,171.334999 377.3628,87.5240707 274.178439,87.5240707 C170.998418,87.5240707 87.3547741,171.334999 87.3547741,274.716014 C87.3547741,378.097029 170.998418,461.907957 274.178439,461.907957 C377.3628,461.907957 461.002104,378.097029 461.002104,274.716014 L459.882516,274.716014 Z" id="Fill-975" fill="#0072FF"></path>
                <path d="M438.044907,274.716014 L436.925319,274.716014 C436.920979,319.747648 418.708146,360.505256 389.256036,390.019085 C359.799587,419.528567 319.121221,437.776879 274.177137,437.776879 C229.233053,437.776879 188.554687,419.528567 159.102577,390.019085 C129.650468,360.505256 111.437634,319.747648 111.433295,274.716014 C111.437634,229.684379 129.650468,188.926772 159.102577,159.412942 C188.554687,129.903461 229.233053,111.655148 274.177137,111.655148 C319.121221,111.655148 359.799587,129.903461 389.256036,159.412942 C418.708146,188.926772 436.920979,229.684379 436.925319,274.716014 L438.044907,274.716014 L439.164495,274.716014 C439.164495,183.41793 365.297719,109.407262 274.177137,109.407262 C183.056555,109.407262 109.194119,183.41793 109.194119,274.716014 C109.194119,366.014098 183.056555,440.024765 274.177137,440.029113 C365.297719,440.024765 439.164495,366.014098 439.164495,274.716014 L438.044907,274.716014 Z" id="Fill-977" fill="#0072FF"></path>
                <path d="M416.205563,274.716014 L415.085974,274.716014 C415.081635,313.708357 399.311933,348.991906 373.813098,374.54476 C348.309923,400.093267 313.090634,415.893688 274.178439,415.893688 C235.266244,415.893688 200.046955,400.093267 174.54378,374.54476 C149.044945,348.991906 133.275243,313.708357 133.275243,274.716014 C133.275243,235.728019 149.044945,200.440122 174.54378,174.887268 C200.046955,149.338761 235.266244,133.53834 274.178439,133.53834 C313.090634,133.53834 348.309923,149.338761 373.813098,174.887268 C399.311933,200.440122 415.081635,235.728019 415.085974,274.716014 L416.205563,274.716014 L417.325151,274.716014 C417.325151,195.505208 353.239582,131.290454 274.178439,131.290454 C195.117295,131.290454 131.031727,195.505208 131.031727,274.716014 C131.031727,353.931168 195.117295,418.137226 274.178439,418.141574 C353.239582,418.141574 417.325151,353.931168 417.325151,274.716014 L416.205563,274.716014 Z" id="Fill-979" fill="#0072FF"></path>
                <path d="M394.366218,274.716014 L393.24663,274.716014 C393.24229,307.66037 379.92006,337.482903 358.37016,359.070435 C336.820259,380.662314 307.060046,394.010496 274.179741,394.010496 C241.299435,394.010496 211.539222,380.662314 189.989322,359.070435 C168.439421,337.482903 155.117191,307.66037 155.112852,274.716014 C155.117191,241.771658 168.439421,211.949124 189.989322,190.361593 C211.539222,168.774061 241.295096,155.421532 274.179741,155.421532 C307.060046,155.421532 336.820259,168.774061 358.37016,190.361593 C379.92006,211.949124 393.24229,241.771658 393.24663,274.716014 L394.366218,274.716014 L395.485806,274.716014 C395.485806,207.592487 341.177106,153.173646 274.179741,153.173646 C207.182376,153.173646 152.873675,207.592487 152.873675,274.716014 C152.873675,341.839541 207.182376,396.26273 274.179741,396.26273 C341.177106,396.26273 395.485806,341.839541 395.485806,274.716014 L394.366218,274.716014 Z" id="Fill-981" fill="#0072FF"></path>
                <path d="M372.526874,274.716014 L371.407286,274.716014 C371.402946,301.61673 360.523848,325.965205 342.927222,343.600458 C325.330595,361.231362 301.029459,372.131652 274.176703,372.131652 C247.328287,372.131652 223.027151,361.231362 205.430524,343.600458 C187.833898,325.965205 176.9548,301.61673 176.9548,274.716014 C176.9548,247.815297 187.833898,223.466823 205.430524,205.83157 C223.027151,188.205014 247.323947,177.304723 274.176703,177.304723 C301.029459,177.304723 325.330595,188.205014 342.927222,205.83157 C360.523848,223.466823 371.402946,247.815297 371.407286,274.716014 L372.526874,274.716014 L373.646462,274.716014 C373.646462,219.675417 329.114629,175.052489 274.176703,175.052489 C219.243116,175.052489 174.711284,219.675417 174.711284,274.716014 C174.711284,329.75661 219.243116,374.379538 274.176703,374.383886 C329.114629,374.379538 373.646462,329.75661 373.646462,274.716014 L372.526874,274.716014 Z" id="Fill-983" fill="#0072FF"></path>
                <path d="M350.687529,274.716014 L349.567941,274.716014 C349.563602,295.577439 341.127636,314.456203 327.484283,328.126132 C313.840931,341.80041 294.998871,350.248461 274.178005,350.248461 C253.357138,350.248461 234.515079,341.80041 220.871727,328.126132 C207.228374,314.456203 198.792408,295.577439 198.792408,274.716014 C198.792408,253.854589 207.228374,234.975825 220.871727,221.305895 C234.515079,207.635966 253.357138,199.183567 274.178005,199.183567 C294.998871,199.183567 313.840931,207.635966 327.484283,221.305895 C341.127636,234.975825 349.563602,253.854589 349.567941,274.716014 L350.687529,274.716014 L351.807117,274.716014 C351.807117,231.758348 317.056492,196.935681 274.178005,196.935681 C231.303857,196.935681 196.548893,231.758348 196.548893,274.716014 C196.548893,317.67368 231.303857,352.496347 274.178005,352.500695 C317.056492,352.500695 351.807117,317.67368 351.807117,274.716014 L350.687529,274.716014 Z" id="Fill-985" fill="#0072FF"></path>
                <path d="M328.848185,274.716014 L327.728597,274.716014 C327.724257,289.5338 321.735763,302.942853 312.041345,312.656155 C302.351267,322.365109 288.968284,328.369617 274.179307,328.369617 C259.39033,328.369617 246.007347,322.365109 236.312929,312.656155 C226.622851,302.942853 220.634357,289.5338 220.630017,274.716014 C220.634357,259.898228 226.622851,246.493523 236.312929,236.775873 C246.007347,227.066918 259.39033,221.062411 274.179307,221.062411 C288.968284,221.062411 302.351267,227.066918 312.041345,236.775873 C321.735763,246.493523 327.724257,259.898228 327.728597,274.716014 L328.848185,274.716014 L329.967773,274.716014 C329.967773,243.841278 304.994016,218.818873 274.179307,218.818873 C243.364598,218.818873 218.386501,243.841278 218.386501,274.716014 C218.386501,305.590749 243.364598,330.617503 274.179307,330.617503 C304.994016,330.617503 329.967773,305.590749 329.967773,274.716014 L328.848185,274.716014 Z" id="Fill-987" fill="#0072FF"></path>
                <path d="M307.008406,274.716014 L305.888818,274.716014 C305.884479,283.494509 302.339116,291.429503 296.602312,297.18183 C290.85683,302.929809 282.937263,306.486425 274.180175,306.486425 C265.418747,306.486425 257.49918,302.929809 251.758037,297.18183 C246.016893,291.429503 242.471531,283.494509 242.467192,274.716014 C242.471531,265.937519 246.016893,258.002525 251.758037,252.250198 C257.49918,246.502219 265.418747,242.945602 274.180175,242.945602 C282.937263,242.945602 290.85683,246.502219 296.602312,252.250198 C302.339116,258.002525 305.884479,265.937519 305.888818,274.716014 L307.008406,274.716014 L308.127994,274.716014 C308.127994,255.928557 292.931105,240.697716 274.180175,240.697716 C255.424905,240.697716 240.228016,255.928557 240.228016,274.716014 C240.228016,293.503471 255.424905,308.734311 274.180175,308.734311 C292.931105,308.734311 308.127994,293.503471 308.127994,274.716014 L307.008406,274.716014 Z" id="Fill-989" fill="#0072FF"></path>
                <path d="M285.169062,274.716014 L284.049474,274.716014 C284.036455,280.181377 279.627535,284.594538 274.177137,284.603234 C268.726739,284.594538 264.317819,280.181377 264.30914,274.716014 C264.317819,269.254999 268.726739,264.841838 274.177137,264.833142 C279.627535,264.841838 284.036455,269.254999 284.049474,274.716014 L285.169062,274.716014 L286.28865,274.716014 C286.28865,268.015835 280.868629,262.580908 274.177137,262.580908 C267.485646,262.580908 262.065624,268.015835 262.065624,274.716014 C262.065624,281.42054 267.485646,286.855468 274.177137,286.855468 C280.868629,286.855468 286.28865,281.42054 286.28865,274.716014 L285.169062,274.716014 Z" id="Fill-991" fill="#0072FF"></path>
              </g>
            </g>
          </g>
        </g>
      </g>
    </g>
  </g>
</svg>
