<svg width="83px" height="82px" viewBox="0 0 83 82" version="1.1"
  xmlns="http://www.w3.org/2000/svg"
  xmlns:xlink="http://www.w3.org/1999/xlink">
  <g id="1.0-Growth-Reinvented" stroke="none" stroke-width="1" fill="none" fill-rule="evenodd">
    <g id="1.0-Growth-Reinvented-Desktop" transform="translate(-331.000000, -728.000000)" fill="#07d08c">
      <g id="2" transform="translate(0.000000, 544.000000)">
        <g id="Group-6" transform="translate(325.000000, 184.000000)">
          <g id="Group-3" transform="translate(6.000000, 0.000000)">
            <g id="Group-7">
              <path d="M41.5,40.8531159 L83,40.8531159 C83,63.2212349 64.4195823,81.3531159 41.5,81.3531159 C18.5795818,81.3531159 0,63.2212349 0,40.8531159 C0,18.4858128 18.5795818,0.353115942 41.5,0.353115942 C46.0832477,0.353115942 49.9643382,0.952698998 54.3244003,2.33541094 L41.5,40.8531159 Z" id="Fill-1"></path>
              <path d="M41.5,6.23265399 C21.8589712,6.23265399 5.87871906,22.2118957 5.87871906,41.8535304 C5.87871906,61.4943362 21.8589712,77.4735779 41.5,77.4735779 C61.1410288,77.4735779 77.1212809,61.4943362 77.1212809,41.8535304 C77.1212809,22.2118957 61.1410288,6.23265399 41.5,6.23265399 M41.5,78.3531159 C21.3740177,78.3531159 5,61.9792842 5,41.8535304 C5,21.7269477 21.3740177,5.35311594 41.5,5.35311594 C61.6259823,5.35311594 78,21.7269477 78,41.8535304 C78,61.9792842 61.6259823,78.3531159 41.5,78.3531159" id="Fill-5"></path>
            </g>
          </g>
        </g>
      </g>
    </g>
  </g>
</svg>
