<svg width="64px" height="351px" viewBox="0 0 64 351" version="1.1"
  xmlns="http://www.w3.org/2000/svg"
  xmlns:xlink="http://www.w3.org/1999/xlink">
  <g id="0.0-Home-Page" stroke="none" stroke-width="1" fill="none" fill-rule="evenodd">
    <g id="0.0-Home-Page-Desktop" transform="translate(-1376.000000, -1080.000000)" fill="#EAE83F">
      <g id="SHAPE-square-|-lines-|-yellow" transform="translate(1376.000000, 1080.000000)">
        <g id="square-|-lines-|-yellow">
          <path d="M0.00116717281,159.736969 L159.717094,0.000875490133" id="Fill-1556"></path>
          <path d="M137.460276,3.41060513e-13 L0.00233434561,137.478216" id="Fill-1558"></path>
          <polygon id="Fill-1560" points="9.38056784 -4.54747351e-13 0.00233434561 9.38233594 0.00233434561 12.1839044 12.1817826 -4.54747351e-13"></polygon>
          <polygon id="Fill-1562" points="34.4350993 -1.13686838e-13 0.000583586403 34.4388636 0.000583586403 37.240432 37.236314 -1.13686838e-13"></polygon>
          <polygon id="Fill-1564" points="59.4925487 -4.54747351e-13 0.00175075921 59.5012278 0.00175075921 62.3027963 62.2937634 -4.54747351e-13"></polygon>
          <polygon id="Fill-1566" points="84.5470801 -1.13686838e-13 1.13686838e-13 84.5577555 1.13686838e-13 87.3593239 87.3482948 -1.13686838e-13"></polygon>
          <polygon id="Fill-1568" points="109.604529 -2.27373675e-13 0.00116717281 109.62012 0.00116717281 112.41877 112.405744 -2.27373675e-13"></polygon>
          <polygon id="Fill-1570" points="134.659061 3.41060513e-13 0.00233434561 134.676647 0.00233434561 137.478216 137.460276 3.41060513e-13"></polygon>
          <polygon id="Fill-1572" points="159.71651 -3.41060513e-13 0.000583586403 159.736093 0.000583586403 162.537662 162.517725 -3.41060513e-13"></polygon>
          <polygon id="Fill-1574" points="184.771334 3.41060513e-13 0.00204255241 184.795539 0.00204255241 187.597108 187.572548 3.41060513e-13"></polygon>
          <polygon id="Fill-1576" points="209.830242 -1.13686838e-13 0.00175075921 209.854985 0.00175075921 212.656554 212.631457 -1.13686838e-13"></polygon>
          <polygon id="Fill-1578" points="234.883314 3.41060513e-13 0.00145896601 234.914431 0.00145896601 237.716 237.684529 3.41060513e-13"></polygon>
          <polygon id="Fill-1580" points="259.942223 3.41060513e-13 0.00116717281 259.973877 0.00116717281 262.775446 262.743437 3.41060513e-13"></polygon>
          <polygon id="Fill-1582" points="284.995295 3.41060513e-13 0.000875379604 285.033323 0.000875379604 287.834891 287.79651 3.41060513e-13"></polygon>
          <polygon id="Fill-1584" points="310.054204 1.13686838e-13 0.000583586403 310.092769 0.000583586403 312.894337 312.855418 1.13686838e-13"></polygon>
          <polygon id="Fill-1586" points="335.110194 3.41060513e-13 0.000291793201 335.152215 0.000291793201 337.956702 337.911409 3.41060513e-13"></polygon>
          <polygon id="Fill-1588" points="350.945227 9.22503954 9.2232913 350.987205 12.024506 350.987205 350.945227 12.026608"></polygon>
          <polygon id="Fill-1590" points="350.945227 34.2812754 34.2795735 350.986913 37.0807882 350.986913 350.945227 37.0857621"></polygon>
          <polygon id="Fill-1592" points="350.945227 59.3433478 59.3329378 350.98954 62.1341525 350.98954 350.945227 62.1449162"></polygon>
          <polygon id="Fill-1594" points="350.945227 84.4025019 84.3921379 350.989248 87.1933527 350.989248 350.945227 87.2040703"></polygon>
          <polygon id="Fill-1596" points="350.945227 109.461948 109.445502 350.989248 112.246717 350.989248 350.945227 112.263516"></polygon>
          <polygon id="Fill-1598" points="350.945227 134.521102 134.504702 350.988956 137.305917 350.988956 350.945227 137.32267"></polygon>
          <polygon id="Fill-1600" points="350.945227 159.580256 159.558067 350.988664 162.359281 350.988664 350.945227 162.381824"></polygon>
          <polygon id="Fill-1602" points="350.945227 184.63941 184.617267 350.988372 187.418481 350.988372 350.945227 187.440979"></polygon>
          <polygon id="Fill-1604" points="350.945227 209.698564 209.670631 350.98808 212.471846 350.98808 350.945227 212.500133"></polygon>
          <polygon id="Fill-1606" points="350.945227 234.757718 234.729831 350.987789 237.531046 350.987789 350.945227 237.559287"></polygon>
          <polygon id="Fill-1608" points="350.945227 259.816873 259.783195 350.987497 262.587328 350.987497 350.945227 262.618441"></polygon>
          <polygon id="Fill-1610" points="350.945227 284.876318 284.842396 350.987497 287.64361 350.987497 350.945227 287.677887"></polygon>
          <polygon id="Fill-1612" points="350.945227 309.935473 309.898678 350.987205 312.699892 350.987205 350.945227 312.737041"></polygon>
          <polygon id="Fill-1614" points="350.945227 334.994627 334.95496 350.986913 337.753257 350.986913 350.945227 337.796195"></polygon>
        </g>
      </g>
    </g>
  </g>
</svg>
