<svg width="187px" height="350px" viewBox="0 0 187 350" version="1.1"
  xmlns="http://www.w3.org/2000/svg"
  xmlns:xlink="http://www.w3.org/1999/xlink">
  <g id="2.0-Resources" stroke="none" stroke-width="1" fill="none" fill-rule="evenodd">
    <g id="2.0-Resources-Desktop" transform="translate(0.000000, -365.000000)" fill="#EAE83F">
      <g id="SHAPE-square-|-lines-|-yellow" transform="translate(-163.000000, 365.000000)">
        <g id="square-|-lines-|-yellow">
          <path d="M0.00116384753,159.281878 L159.262059,0.000872995859" id="Fill-1556"></path>
          <path d="M137.068651,3.41060513e-13 L0.00232769505,137.08654" id="Fill-1558"></path>
          <polygon id="Fill-1560" points="9.35384257 -4.54747351e-13 0.00232769505 9.35560564 0.00232769505 12.1491924 12.1470766 -4.54747351e-13"></polygon>
          <polygon id="Fill-1562" points="34.3369936 -1.13686838e-13 0.000581923764 34.3407472 0.000581923764 37.1343339 37.1302277 -1.13686838e-13"></polygon>
          <polygon id="Fill-1564" points="59.3230542 -4.54747351e-13 0.00174577129 59.3317087 0.00174577129 62.1252954 62.1162883 -4.54747351e-13"></polygon>
          <polygon id="Fill-1566" points="84.3062052 -1.13686838e-13 1.13686838e-13 84.3168502 1.13686838e-13 87.1104369 87.0994393 -1.13686838e-13"></polygon>
          <polygon id="Fill-1568" points="109.292266 -2.27373675e-13 0.00116384753 109.307812 0.00116384753 112.098488 112.0855 -2.27373675e-13"></polygon>
          <polygon id="Fill-1570" points="134.275417 3.41060513e-13 0.00232769505 134.292953 0.00232769505 137.08654 137.068651 3.41060513e-13"></polygon>
          <polygon id="Fill-1572" points="159.261478 -3.41060513e-13 0.000581923764 159.281005 0.000581923764 162.074591 162.054712 -3.41060513e-13"></polygon>
          <polygon id="Fill-1574" points="184.244919 3.41060513e-13 0.00203673317 184.269056 0.00203673317 187.062643 187.038154 3.41060513e-13"></polygon>
          <polygon id="Fill-1576" points="209.232435 -1.13686838e-13 0.00174577129 209.257108 0.00174577129 212.050694 212.025669 -1.13686838e-13"></polygon>
          <polygon id="Fill-1578" points="234.214131 3.41060513e-13 0.00145480941 234.245159 0.00145480941 237.038746 237.007365 3.41060513e-13"></polygon>
          <polygon id="Fill-1580" points="259.201647 3.41060513e-13 0.00116384753 259.233211 0.00116384753 262.026798 261.994881 3.41060513e-13"></polygon>
          <polygon id="Fill-1582" points="284.183343 3.41060513e-13 0.000872885645 284.221262 0.000872885645 287.014849 286.976577 3.41060513e-13"></polygon>
          <polygon id="Fill-1584" points="309.170858 1.13686838e-13 0.000581923764 309.209314 0.000581923764 312.002901 311.964092 1.13686838e-13"></polygon>
          <polygon id="Fill-1586" points="334.155464 3.41060513e-13 0.000290961881 334.197365 0.000290961881 336.993862 336.948698 3.41060513e-13"></polygon>
          <polygon id="Fill-1588" points="349.945383 9.19875738 9.19701412 349.987241 11.9902482 349.987241 349.945383 11.9923441"></polygon>
          <polygon id="Fill-1590" points="349.945383 34.1836079 34.1819109 349.98695 36.975145 349.98695 349.945383 36.9801046"></polygon>
          <polygon id="Fill-1592" points="349.945383 59.1742784 59.1638981 349.989569 61.9571321 349.989569 349.945383 61.9678652"></polygon>
          <polygon id="Fill-1594" points="349.945383 84.1620389 84.1517045 349.989278 86.9449385 349.989278 349.945383 86.9556257"></polygon>
          <polygon id="Fill-1596" points="349.945383 109.15009 109.133692 349.989278 111.926926 349.989278 349.945383 111.943677"></polygon>
          <polygon id="Fill-1598" points="349.945383 134.137851 134.121498 349.988987 136.914732 349.988987 349.945383 136.931438"></polygon>
          <polygon id="Fill-1600" points="349.945383 159.125611 159.103485 349.988696 161.896719 349.988696 349.945383 161.919198"></polygon>
          <polygon id="Fill-1602" points="349.945383 184.113372 184.091292 349.988405 186.884526 349.988405 349.945383 186.906959"></polygon>
          <polygon id="Fill-1604" points="349.945383 209.101132 209.073279 349.988114 211.866513 349.988114 349.945383 211.894719"></polygon>
          <polygon id="Fill-1606" points="349.945383 234.088893 234.061085 349.987823 236.854319 349.987823 349.945383 236.88248"></polygon>
          <polygon id="Fill-1608" points="349.945383 259.076653 259.043072 349.987532 261.839216 349.987532 349.945383 261.87024"></polygon>
          <polygon id="Fill-1610" points="349.945383 284.064705 284.030879 349.987532 286.824113 349.987532 349.945383 286.858292"></polygon>
          <polygon id="Fill-1612" points="349.945383 309.052466 309.015776 349.987241 311.80901 349.987241 349.945383 311.846052"></polygon>
          <polygon id="Fill-1614" points="349.945383 334.040226 334.000672 349.98695 336.790997 349.98695 349.945383 336.833813"></polygon>
        </g>
      </g>
    </g>
  </g>
</svg>
