<svg width="260px" height="414px" viewBox="0 0 260 414" version="1.1"
  xmlns="http://www.w3.org/2000/svg"
  xmlns:xlink="http://www.w3.org/1999/xlink">
  <g id="0.0-Home-Page" stroke="none" stroke-width="1" fill="none" fill-rule="evenodd" opacity="0.35">
    <g id="0.0-Home-Page-Desktop" transform="translate(-1180.000000, -1033.000000)" fill="#EAE83F">
      <g id="Square---Multiple" transform="translate(1180.000000, 1033.000000)">
        <g>
          <path d="M0.227142776,414 L210.249041,414 L210.249041,199.276119 L0.227142776,199.276119 L0.227142776,414 Z M1.82273733,412.372265 L208.653446,412.372265 L208.653446,200.907464 L1.82273733,200.907464 L1.82273733,412.372265 Z" id="Fill-1"></path>
          <path d="M12.4029097,402.33122 L219.230088,402.33122 L219.230088,190.866419 L12.4029097,190.866419 L12.4029097,402.33122 Z M10.8037851,403.958955 L220.825683,403.958955 L220.825683,189.235075 L10.8037851,189.235075 L10.8037851,403.958955 Z" id="Fill-2"></path>
          <path d="M22.9795521,392.290175 L229.806731,392.290175 L229.806731,180.828983 L22.9795521,180.828983 L22.9795521,392.290175 Z M21.3804274,393.91791 L231.402325,393.91791 L231.402325,179.19403 L21.3804274,179.19403 L21.3804274,393.91791 Z" id="Fill-3"></path>
          <path d="M32.7971899,382.249131 L239.624369,382.249131 L239.624369,170.784329 L32.7971899,170.784329 L32.7971899,382.249131 Z M31.2015953,383.876866 L241.223493,383.876866 L241.223493,169.152985 L31.2015953,169.152985 L31.2015953,383.876866 Z" id="Fill-4"></path>
          <path d="M42.6218878,372.980501 L249.449066,372.980501 L249.449066,161.519254 L42.6218878,161.519254 L42.6218878,372.980501 Z M41.0227632,374.608209 L251.044661,374.608209 L251.044661,159.884328 L41.0227632,159.884328 L41.0227632,374.608209 Z" id="Fill-5"></path>
          <path d="M53.1985302,362.163432 L260.025709,362.163432 L260.025709,150.698631 L53.1985302,150.698631 L53.1985302,362.163432 Z M51.5994055,363.794776 L261.621303,363.794776 L261.621303,149.070896 L51.5994055,149.070896 L51.5994055,363.794776 Z" id="Fill-6"></path>
          <path d="M63.016168,352.898384 L269.843347,352.898384 L269.843347,141.433583 L63.016168,141.433583 L63.016168,352.898384 Z M61.4205734,354.526119 L271.442471,354.526119 L271.442471,139.802239 L61.4205734,139.802239 L61.4205734,354.526119 Z" id="Fill-7"></path>
          <path d="M73.5928103,342.85734 L280.419989,342.85734 L280.419989,131.396147 L73.5928103,131.396147 L73.5928103,342.85734 Z M71.9972158,344.485075 L282.019114,344.485075 L282.019114,129.761194 L71.9972158,129.761194 L71.9972158,344.485075 Z" id="Fill-8"></path>
          <path d="M82.6620338,332.816295 L289.489212,332.816295 L289.489212,121.351493 L82.6620338,121.351493 L82.6620338,332.816295 Z M81.0629092,334.44403 L291.084807,334.44403 L291.084807,119.720149 L81.0629092,119.720149 L81.0629092,334.44403 Z" id="Fill-9"></path>
          <path d="M93.2351461,322.77525 L300.062325,322.77525 L300.062325,111.314058 L93.2351461,111.314058 L93.2351461,322.77525 Z M91.6395515,324.402985 L301.661449,324.402985 L301.661449,109.679104 L91.6395515,109.679104 L91.6395515,324.402985 Z" id="Fill-10"></path>
          <path d="M103.056314,312.734205 L309.883493,312.734205 L309.883493,101.269404 L103.056314,101.269404 L103.056314,312.734205 Z M101.460719,314.36194 L311.482617,314.36194 L311.482617,99.6380597 L101.460719,99.6380597 L101.460719,314.36194 Z" id="Fill-11"></path>
          <path d="M113.636486,302.693188 L320.463665,302.693188 L320.463665,91.2319409 L113.636486,91.2319409 L113.636486,302.693188 Z M112.037362,304.320896 L322.05926,304.320896 L322.05926,89.5970149 L112.037362,89.5970149 L112.037362,304.320896 Z" id="Fill-12"></path>
          <path d="M124.213129,292.648507 L331.040307,292.648507 L331.040307,81.1837052 L124.213129,81.1837052 L124.213129,292.648507 Z M122.614004,294.279851 L332.635902,294.279851 L332.635902,79.5559701 L122.614004,79.5559701 L122.614004,294.279851 Z" id="Fill-13"></path>
          <path d="M133.275292,282.607489 L340.102471,282.607489 L340.102471,71.1462422 L133.275292,71.1462422 L133.275292,282.607489 Z M131.679698,284.238806 L341.701595,284.238806 L341.701595,69.5149254 L131.679698,69.5149254 L131.679698,284.238806 Z" id="Fill-14"></path>
          <path d="M143.851961,272.570026 L350.682616,272.570026 L350.682616,61.1052248 L143.851961,61.1052248 L143.851961,272.570026 Z M142.25634,274.197761 L352.278238,274.197761 L352.278238,59.4738806 L142.25634,59.4738806 L142.25634,274.197761 Z" id="Fill-15"></path>
          <path d="M153.676632,263.301369 L360.503811,263.301369 L360.503811,51.8365681 L153.676632,51.8365681 L153.676632,263.301369 Z M152.077508,264.929104 L362.099406,264.929104 L362.099406,50.2052239 L152.077508,50.2052239 L152.077508,264.929104 Z" id="Fill-16"></path>
          <path d="M164.249745,252.487937 L371.076923,252.487937 L371.076923,41.0267445 L164.249745,41.0267445 L164.249745,252.487937 Z M162.65415,254.115672 L372.676048,254.115672 L372.676048,39.391791 L162.65415,39.391791 L162.65415,254.115672 Z" id="Fill-17"></path>
          <path d="M174.070913,243.21928 L380.898091,243.21928 L380.898091,31.7544786 L174.070913,31.7544786 L174.070913,243.21928 Z M172.475318,244.847015 L382.497216,244.847015 L382.497216,30.1231343 L172.475318,30.1231343 L172.475318,244.847015 Z" id="Fill-18"></path>
          <path d="M183.89561,233.178235 L390.722789,233.178235 L390.722789,21.717043 L183.89561,21.717043 L183.89561,233.178235 Z M182.296486,234.80597 L392.318384,234.80597 L392.318384,20.0820896 L182.296486,20.0820896 L182.296486,234.80597 Z" id="Fill-19"></path>
          <path d="M194.472253,223.13719 L401.299431,223.13719 L401.299431,11.672389 L194.472253,11.672389 L194.472253,223.13719 Z M192.873128,224.764925 L402.895026,224.764925 L402.895026,10.0410448 L192.873128,10.0410448 L192.873128,224.764925 Z" id="Fill-20"></path>
          <path d="M203.449771,214.723881 L413.471668,214.723881 L413.471668,0 L203.449771,0 L203.449771,214.723881 Z M205.045365,213.092564 L411.876074,213.092564 L411.876074,1.63131682 L205.045365,1.63131682 L205.045365,213.092564 Z" id="Fill-21"></path>
        </g>
      </g>
    </g>
  </g>
</svg>
