<svg width="609px" height="413px" viewBox="0 0 609 413" version="1.1"
  xmlns="http://www.w3.org/2000/svg"
  xmlns:xlink="http://www.w3.org/1999/xlink">
  <g id="2.1-Case-Studies" stroke="none" stroke-width="1" fill="none" fill-rule="evenodd">
    <g id="2.3-Blog-Desktop" transform="translate(-415.000000, -373.000000)" fill="#EAE83F">
      <g id="featured-case-study" transform="translate(165.000000, 373.000000)">
        <g id="image" transform="translate(187.000000, 0.000000)">
          <g id="Group-4">
            <g id="Group">
              <g id="Circle---Lines" transform="translate(0.831731, 0.000000)">
                <g id="SHAPE-square-|-multiple-|-yellow" transform="translate(62.168269, -107.000000)">
                  <g id="square-|-multiple-|-yellow">
                    <polygon id="Fill-1514" points="309.551513 607.030017 309.551513 605.830546 2.36593895 605.830546 2.36593895 294.870325 308.371155 294.870325 308.371155 607.030017 309.551513 607.030017 309.551513 605.830546 309.551513 607.030017 310.731871 607.030017 310.731871 292.471383 -5.68434189e-14 292.471383 -5.68434189e-14 608.229488 310.731871 608.229488 310.731871 607.030017"></polygon>
                    <polygon id="Fill-1516" points="324.454839 592.408677 324.454839 591.209206 17.2692652 591.209206 17.2692652 280.248985 323.274481 280.248985 323.274481 592.408677 324.454839 592.408677 324.454839 591.209206 324.454839 592.408677 325.635197 592.408677 325.635197 277.844735 14.9033262 277.844735 14.9033262 593.608148 325.635197 593.608148 325.635197 592.408677"></polygon>
                    <polygon id="Fill-1518" points="339.360777 577.78256 339.360777 576.583089 32.1752028 576.583089 32.1752028 265.622868 338.180419 265.622868 338.180419 577.78256 339.360777 577.78256 339.360777 576.583089 339.360777 577.78256 340.541135 577.78256 340.541135 263.223926 29.8092639 263.223926 29.8092639 578.982031 340.541135 578.982031 340.541135 577.78256"></polygon>
                    <polygon id="Fill-1520" points="354.264103 563.16122 354.264103 561.961749 47.078529 561.961749 47.078529 251.001528 353.083745 251.001528 353.083745 563.16122 354.264103 563.16122 354.264103 561.961749 354.264103 563.16122 355.444461 563.16122 355.444461 248.597279 44.7125901 248.597279 44.7125901 564.360691 355.444461 564.360691 355.444461 563.16122"></polygon>
                    <polygon id="Fill-1522" points="369.167952 548.53988 369.167952 547.340409 61.9823776 547.340409 61.9823776 236.374881 367.987594 236.374881 367.987594 548.53988 369.167952 548.53988 369.167952 547.340409 369.167952 548.53988 370.34831 548.53988 370.34831 233.975939 59.6164386 233.975939 59.6164386 549.739351 370.34831 549.739351 370.34831 548.53988"></polygon>
                    <polygon id="Fill-1524" points="384.073889 533.913763 384.073889 532.714292 76.8883152 532.714292 76.8883152 221.754071 382.893531 221.754071 382.893531 533.913763 384.073889 533.913763 384.073889 532.714292 384.073889 533.913763 385.254247 533.913763 385.254247 219.349822 74.5223762 219.349822 74.5223762 535.113235 385.254247 535.113235 385.254247 533.913763"></polygon>
                    <polygon id="Fill-1526" points="398.977215 519.292423 398.977215 518.092952 91.7916414 518.092952 91.7916414 207.132731 397.796857 207.132731 397.796857 519.292423 398.977215 519.292423 398.977215 518.092952 398.977215 519.292423 400.157574 519.292423 400.157574 204.728482 89.4257025 204.728482 89.4257025 520.491894 400.157574 520.491894 400.157574 519.292423"></polygon>
                    <polygon id="Fill-1528" points="413.883153 504.665776 413.883153 503.466305 106.697579 503.466305 106.697579 192.506084 412.702795 192.506084 412.702795 504.665776 413.883153 504.665776 413.883153 503.466305 413.883153 504.665776 415.063511 504.665776 415.063511 190.107142 104.33164 190.107142 104.33164 505.865247 415.063511 505.865247 415.063511 504.665776"></polygon>
                    <polygon id="Fill-1530" points="428.786479 490.044436 428.786479 488.844965 121.600905 488.844965 121.600905 177.884744 427.606121 177.884744 427.606121 490.044436 428.786479 490.044436 428.786479 488.844965 428.786479 490.044436 429.966837 490.044436 429.966837 175.480494 119.234966 175.480494 119.234966 491.243907 429.966837 491.243907 429.966837 490.044436"></polygon>
                    <polygon id="Fill-1532" points="443.689806 475.418319 443.689806 474.218848 136.504232 474.218848 136.504232 163.258627 442.509447 163.258627 442.509447 475.418319 443.689806 475.418319 443.689806 474.218848 443.689806 475.418319 444.870164 475.418319 444.870164 160.859685 134.138293 160.859685 134.138293 476.61779 444.870164 476.61779 444.870164 475.418319"></polygon>
                    <polygon id="Fill-1534" points="458.595743 460.796979 458.595743 459.597508 151.410169 459.597508 151.410169 148.637287 457.415385 148.637287 457.415385 460.796979 458.595743 460.796979 458.595743 459.597508 458.595743 460.796979 459.776101 460.796979 459.776101 146.233038 149.04423 146.233038 149.04423 461.99645 459.776101 461.99645 459.776101 460.796979"></polygon>
                    <polygon id="Fill-1536" points="473.499069 446.175639 473.499069 444.976168 166.313495 444.976168 166.313495 134.01064 472.318711 134.01064 472.318711 446.175639 473.499069 446.175639 473.499069 444.976168 473.499069 446.175639 474.679427 446.175639 474.679427 131.611698 163.947556 131.611698 163.947556 447.37511 474.679427 447.37511 474.679427 446.175639"></polygon>
                    <polygon id="Fill-1538" points="488.405007 431.549522 488.405007 430.350051 181.219433 430.350051 181.219433 119.389831 487.224649 119.389831 487.224649 431.549522 488.405007 431.549522 488.405007 430.350051 488.405007 431.549522 489.585365 431.549522 489.585365 116.985581 178.853494 116.985581 178.853494 432.748994 489.585365 432.748994 489.585365 431.549522"></polygon>
                    <polygon id="Fill-1540" points="503.308333 416.928182 503.308333 415.728711 196.122759 415.728711 196.122759 104.763183 502.127975 104.763183 502.127975 416.928182 503.308333 416.928182 503.308333 415.728711 503.308333 416.928182 504.488691 416.928182 504.488691 102.364241 193.75682 102.364241 193.75682 418.127654 504.488691 418.127654 504.488691 416.928182"></polygon>
                    <polygon id="Fill-1542" points="518.212182 402.301535 518.212182 401.102064 211.026608 401.102064 211.026608 90.141843 517.031824 90.141843 517.031824 402.301535 518.212182 402.301535 518.212182 401.102064 518.212182 402.301535 519.39254 402.301535 519.39254 87.7375935 208.665892 87.7375935 208.665892 403.501006 519.39254 403.501006 519.39254 402.301535"></polygon>
                    <polygon id="Fill-1544" points="533.118119 387.680195 533.118119 386.480724 225.932545 386.480724 225.932545 75.520503 531.937761 75.520503 531.937761 387.680195 533.118119 387.680195 533.118119 386.480724 533.118119 387.680195 534.298477 387.680195 534.298477 73.1162535 223.566606 73.1162535 223.566606 388.879666 534.298477 388.879666 534.298477 387.680195"></polygon>
                    <polygon id="Fill-1546" points="548.021446 373.054078 548.021446 371.854607 240.835872 371.854607 240.835872 60.8943863 546.841088 60.8943863 546.841088 373.054078 548.021446 373.054078 548.021446 371.854607 548.021446 373.054078 549.201804 373.054078 549.201804 58.4954442 238.469933 58.4954442 238.469933 374.253549 549.201804 374.253549 549.201804 373.054078"></polygon>
                    <polygon id="Fill-1548" points="562.927383 358.432738 562.927383 357.233267 255.741809 357.233267 255.741809 46.2730463 561.747025 46.2730463 561.747025 358.432738 562.927383 358.432738 562.927383 357.233267 562.927383 358.432738 564.107741 358.432738 564.107741 43.8687968 253.37587 43.8687968 253.37587 359.632209 564.107741 359.632209 564.107741 358.432738"></polygon>
                    <polygon id="Fill-1550" points="577.83071 343.806091 577.83071 342.60662 270.645136 342.60662 270.645136 31.6463989 576.650351 31.6463989 576.650351 343.806091 577.83071 343.806091 577.83071 342.60662 577.83071 343.806091 579.011068 343.806091 579.011068 29.2474567 268.279197 29.2474567 268.279197 345.005562 579.011068 345.005562 579.011068 343.806091"></polygon>
                    <polygon id="Fill-1552" points="592.736647 329.184751 592.736647 327.98528 285.551073 327.98528 285.551073 17.0250588 591.556289 17.0250588 591.556289 329.184751 592.736647 329.184751 592.736647 327.98528 592.736647 329.184751 593.917005 329.184751 593.917005 14.6208093 283.185134 14.6208093 283.185134 330.384222 593.917005 330.384222 593.917005 329.184751"></polygon>
                    <polygon id="Fill-1554" points="607.639973 314.563942 607.639973 313.36447 300.454399 313.36447 300.454399 2.39894214 606.459615 2.39894214 606.459615 314.563942 607.639973 314.563942 607.639973 313.36447 607.639973 314.563942 608.820331 314.563942 608.820331 -1.13686838e-13 298.08846 -1.13686838e-13 298.08846 315.763413 608.820331 315.763413 608.820331 314.563942"></polygon>
                  </g>
                </g>
              </g>
            </g>
          </g>
        </g>
      </g>
    </g>
  </g>
</svg>
